<?xml version="1.0" encoding="utf-8"?>
<!-- Generator: Adobe Illustrator 21.1.0, SVG Export Plug-In . SVG Version: 6.00 Build 0)  -->
<svg version="1.1" id="Layer1" xmlns="http://www.w3.org/2000/svg" xmlns:xlink="http://www.w3.org/1999/xlink" x="0px" y="0px"
	 width="264px" height="88px" viewBox="-173 353 264 88" style="enable-background:new -173 353 264 88;" xml:space="preserve">
<style type="text/css">
	.st0{fill:#292929;}
	.st1{fill:#FFFFFF;}
</style>
<title>default-skin 2</title>
<path class="st0" d="M-145.2,414.5l-4.6,4.6l4.6,4.6l-1.2,1.2l-4.6-4.6l-4.6,4.6l-1.2-1.2l4.6-4.6l-4.6-4.6l1.2-1.2l4.6,4.6l4.6-4.6
	L-145.2,414.5z"/>
<path class="st1" d="M-156.5,369.5v3h-2v-5h5v2H-156.5z M-156.5,380.6h3v2h-5v-5h2V380.6z M-145.5,369.5h-3v-2h5v5h-2V369.5z
	 M-145.5,380.6v-3h2v5h-5v-2H-145.5z"/>
<path class="st1" d="M-68.7,369.2c1.6-1.6,3.5-2.4,5.7-2.4c2.2,0,4.2,0.8,5.7,2.4c1.6,1.6,2.4,3.5,2.4,5.7c0,2.2-0.8,4.2-2.4,5.7
	c-1.6,1.6-3.5,2.4-5.7,2.4c-2.2,0-4.2-0.8-5.7-2.4c-1.6-1.6-2.4-3.5-2.4-5.7C-71.1,372.7-70.3,370.8-68.7,369.2z M-58.8,375.8v-1.6
	h-3.4v-3.4h-1.6v3.4h-3.4v1.6h3.4v3.4h1.6v-3.4H-58.8z"/>
<path class="st1" d="M-24.7,369.2c1.6-1.6,3.5-2.4,5.7-2.4c2.2,0,4.2,0.8,5.7,2.4c1.6,1.6,2.4,3.5,2.4,5.7c0,2.2-0.8,4.2-2.4,5.7
	c-1.6,1.6-3.5,2.4-5.7,2.4c-2.2,0-4.2-0.8-5.7-2.4c-1.6-1.6-2.4-3.5-2.4-5.7C-27.1,372.7-26.3,370.8-24.7,369.2z M-14.8,375.8v-1.6
	h-8.4v1.6H-14.8z"/>
<path class="st1" d="M-111.5,370.5v-3h2v5h-5v-2H-111.5z M-114.5,379.5v-2h5v5h-2v-3H-114.5z M-102.5,370.5h3v2h-5v-5h2V370.5z
	 M-104.5,382.5v-5h5v2h-3v3H-104.5z"/>
<path class="st1" d="M-102,422.6c0.7,0,1.3,0.2,1.7,0.7s0.7,1,0.7,1.7c0,0.7-0.2,1.3-0.7,1.7s-1,0.7-1.7,0.7c-0.7,0-1.3-0.2-1.7-0.7
	s-0.7-1-0.7-1.7c0-0.2,0-0.3,0.1-0.5l-5.9-3.4c-0.5,0.4-1.1,0.7-1.7,0.7c-0.7,0-1.3-0.2-1.8-0.7c-0.5-0.5-0.7-1.1-0.7-1.8
	c0-0.7,0.2-1.3,0.7-1.8c0.5-0.5,1.1-0.7,1.7-0.7c0.7,0,1.2,0.2,1.7,0.7l5.9-3.4c-0.1-0.3-0.1-0.5-0.1-0.6c0-0.7,0.2-1.3,0.7-1.8
	c0.5-0.5,1.1-0.7,1.8-0.7c0.7,0,1.3,0.2,1.8,0.7c0.5,0.5,0.7,1.1,0.7,1.8c0,0.7-0.2,1.3-0.7,1.8c-0.5,0.5-1.1,0.7-1.8,0.7
	c-0.7,0-1.2-0.2-1.7-0.7l-5.9,3.4c0.1,0.3,0.1,0.5,0.1,0.6c0,0.1,0,0.3-0.1,0.6l6,3.4C-103.2,422.8-102.7,422.6-102,422.6z"/>
<path class="st1" d="M-69.7,419.9v-1.6h10.2l-4.6-4.7l1.2-1.2l6.7,6.7l-6.7,6.7l-1.2-1.2l4.7-4.7H-69.7z"/>
<path class="st1" d="M-12.3,418.3v1.6h-10.2l4.6,4.7l-1.2,1.2l-6.7-6.7l6.7-6.7l1.2,1.2l-4.7,4.7H-12.3z"/>
</svg>
