<?xml version="1.0" encoding="utf-8"?>
<!-- Generator: Adobe Illustrator 22.0.0, SVG Export Plug-In . SVG Version: 6.00 Build 0)  -->
<svg version="1.1" id="Layer_1" xmlns="http://www.w3.org/2000/svg" xmlns:xlink="http://www.w3.org/1999/xlink" x="0px" y="0px"
	 width="115px" height="54px" viewBox="0 0 115 54" style="enable-background:new 0 0 115 54;" xml:space="preserve">
<style type="text/css">
	.st0{fill:#121212;}
</style>
<path class="st0" d="M9.6,27l-0.5-0.1l0.5-0.3c0,0,0,0,0.1,0c0,0,0,0,0,0c0.1-0.1,0.1-0.1,0.1-0.1c0,0,0.1,0.1,0.2,0.2l-0.5,0.2
	L9.6,27z M18.1,10.8l0.6-0.5c0.1,0,0.2-0.1,0.4-0.2l0.1-0.3c0,0,0-0.1,0.1-0.3l-0.6,0.3l-0.6,0.6C18,10.5,18.1,10.7,18.1,10.8z
	 M17.3,32.9l-0.8,1.6l0.8-1l-0.3,0.1l0.3-0.7L17.3,32.9z M10.1,26.6L10.1,26.6C10.1,26.6,10.1,26.6,10.1,26.6L10.1,26.6z M10.7,26.6
	c0.2-0.1,0.3-0.2,0.4-0.3l-0.2,0c-0.3,0.1-0.5,0.2-0.7,0.3c0,0,0,0,0,0.1C10.3,26.7,10.5,26.6,10.7,26.6z M21.7,25.3l-0.2,0.5
	l0.4-0.3c0,0,0-0.1,0-0.2c0,0-0.1,0-0.1,0C21.7,25.3,21.7,25.3,21.7,25.3z M11.7,25.9c-0.1,0-0.1,0.1-0.2,0.2
	c-0.1,0.1-0.1,0.2-0.2,0.2c0.2,0,0.4-0.1,0.6-0.1C11.9,26,11.8,25.9,11.7,25.9z M32.3,4.2V4.1l-1.4,0.3L31,4.5L32.3,4.2z M23.6,31.8
	c0.1,0.1,0.2,0.2,0.5,0.2c0-0.1-0.2-0.5-0.5-1.1c0,0.1,0,0.2,0,0.4C23.5,31.5,23.5,31.7,23.6,31.8z M52.1,46.1
	c0.1,0.4,0.2,0.7,0.2,1.1c0,0.1,0,0.2-0.1,0.3c0,0.1-0.1,0.2-0.1,0.3l-0.6,1.1c0,0,0,0,0,0.1l0,0c0,0-0.1,0-0.2,0.1
	c-0.1,0-0.1,0.1-0.2,0.1c-0.1,0.2-0.2,0.5-0.4,0.8l-0.1,0.3c0,0.1-0.1,0.2,0,0.3c-0.1,0.4-0.4,0.7-0.6,1.1c-0.3,0.4-0.6,0.7-0.9,1
	c-0.3,0.3-0.5,0.4-0.6,0.3c-0.1,0-0.2,0-0.3,0.1c-0.1,0-0.2,0-0.2,0.1c0,0-0.1,0.1-0.1,0.2c0,0.1-0.1,0.1-0.1,0.2
	c-0.6,0.5-1.4,0.7-2.5,0.7c-1.2-0.1-2.5-0.4-3.9-1c-1-0.5-2.1-1.1-3.4-1.9c-0.7-0.4-1.7-1.1-3.1-2.1l-0.7-0.5
	c-0.7-0.4-1.4-1-2.3-1.6c-0.1-0.1-0.3-0.3-0.8-0.7l-0.6-0.6c-0.1-0.1-0.4-0.3-0.7-0.6l-0.6-0.4l-1.3-1.2l-2.2-2
	c-0.2-0.2-0.4-0.3-0.6-0.5c-0.2-0.2-0.5-0.4-0.7-0.6c-0.1-0.1-0.4-0.5-0.8-1c0,0-0.1-0.1-0.2-0.1c-0.1,0-0.1-0.1-0.2-0.1l-0.5-0.6
	c-0.3-0.4-0.6-0.8-0.7-1l-1.3-1.9c0-0.1-0.1-0.2-0.1-0.4L21,34.9c0-0.1-0.1-0.2-0.2-0.4c-0.1-0.2-0.2-0.3-0.2-0.3
	c-0.2,0-0.3,0-0.4-0.1c-0.1-0.1-0.1-0.2-0.2-0.3s-0.1-0.2-0.1-0.3c0,0-0.1-0.1-0.1-0.2c0-0.1,0-0.1-0.1-0.2l0.1,0l-0.1-0.5l-0.1,0.3
	L19.4,32c-0.1-0.2-0.2-0.3-0.3-0.5c-0.1-0.2-0.2-0.3-0.2-0.4l-0.3-0.6l-0.3,0.4l0-0.5c-0.2,0.3-0.4,0.5-0.5,0.7c0,0,0,0.1,0,0.1
	l0,0.1c-0.2,0.4-0.3,0.6-0.4,0.7c0,0.1-0.1,0.2-0.1,0.3c0,0.1,0,0.2-0.1,0.3c0,0-0.1,0-0.1,0.1c-0.1,0-0.1,0-0.1,0.1
	c0,0-0.1,0-0.1,0c0,0-0.1,0-0.1,0c0,0,0,0.1,0,0.1c0,0,0,0.1,0,0.1c0,0.2,0.1,0.3,0,0.5l-0.3-0.5l-0.1,0.7c0.1-0.2,0.2-0.3,0.2-0.3
	c0.1,0.1,0.2,0.1,0.2,0.2c0,0.1-0.1,0.1-0.2,0.2c-0.1,0.1-0.1,0.2-0.2,0.4c-0.1,0.2-0.1,0.3-0.1,0.4c0,0,0,0.1,0,0.2
	c0,0.1,0,0.2-0.1,0.3c-0.1,0.3-0.3,0.6-0.4,0.8c-0.1,0-0.2,0.1-0.2,0.1c-0.2,0.5-0.3,0.8-0.4,0.9c0,0,0,0.1,0.1,0.1
	c0,0.1,0,0.1,0,0.1c-0.1,0.3-0.2,0.7-0.4,1c0,0-0.1,0.1-0.1,0.1c0,0-0.1,0.1-0.1,0.1c-0.1,0.1-0.1,0.2,0,0.3l0.1-0.3l0.1,0.1
	c-0.1,0.2-0.3,0.4-0.4,0.5l0.1,0c-0.2,0.3-0.3,0.6-0.4,0.8c-0.1,0.1-0.2,0.4-0.3,0.7c-0.3,1-0.4,1.5-0.4,1.6c0,0.1-0.1,0.3-0.2,0.6
	c-0.1,0.3-0.2,0.5-0.2,0.7c-0.1,0.5-0.2,1-0.2,1.5c0,0.3,0.1,0.7,0.4,1.3c0,0,0.1,0.1,0.2,0.1c0.1,0,0.2,0,0.3,0l0.4-0.3
	c0.1-0.1,0.3-0.2,0.4-0.2c0.1,0,0.2-0.1,0.4-0.1c0.2,0,0.3,0,0.4-0.1c0.1,0,0.1-0.1,0.2-0.1c0-0.1,0.1-0.1,0.2-0.2l0.1,0.5l0.2-0.2
	l0.1,0l-0.2,0.6H16c0,0.1-0.1,0.2-0.1,0.3c0,0.1-0.1,0.2-0.2,0.3c-0.2,0.4-0.5,0.6-0.7,0.8c-0.3,0.2-0.6,0.3-0.9,0.3
	c-0.8,0-1.7-0.3-2.6-0.8c0,0,0,0,0,0h0h-0.1c-0.1,0-0.3,0-0.4-0.1c-0.1-0.1-0.2-0.2-0.2-0.3c-0.1-0.1-0.1-0.2-0.1-0.3
	c0-0.1-0.1-0.2-0.1-0.3c0-0.1,0-0.3-0.1-0.4c-0.2-0.6-0.4-1.1-0.4-1.4c0-0.2,0-0.4,0-0.7c0-0.3,0-0.4,0.1-0.6c0,0,0-0.1-0.1-0.2
	l0.1,0c0-0.4,0-0.7,0.1-1.2c0.1-0.4,0.2-0.7,0.3-0.9l0.1,0.3l0.1,0l0.5-1.9l-0.1,0.1l0.4-1.5c0.1,0.1,0.1,0.2,0.1,0.3l1-2.5
	c0,0-0.1-0.1-0.4-0.2c0,0.1,0,0.2,0,0.2h-0.6l0.3,0.1h-0.1l-0.3,0c-0.2,0-0.3,0.1-0.3,0.4L11,35.9c0,0-0.1,0-0.3-0.1l0,0.1
	c0.1,0,0.2,0.1,0.4,0.1l-1.1,0.4c-0.1,0-0.1,0-0.2,0.1c-0.1,0-0.2,0-0.3,0H9.3c-0.1,0-0.2,0-0.3-0.1l-1,0.4c0,0-0.1,0-0.1,0
	c-0.1,0-0.1,0-0.1,0.1c-0.1,0-0.2,0.1-0.3,0.2c-0.1,0.1-0.3,0.2-0.4,0.2c-0.1,0-0.3,0.1-0.5,0.1c-0.2,0-0.3,0-0.5,0.1
	c0,0,0,0.1-0.1,0.1l0,0.1c-0.1,0-0.2,0-0.3,0c-0.1,0-0.2,0-0.3,0c0,0-0.1,0-0.3,0c-0.1,0-0.3-0.1-0.4-0.1c-0.3-0.2-0.6-0.4-1.1-0.8
	L2.9,36c-0.2-0.1-0.4-0.3-0.7-0.6S1.7,35,1.5,34.8c-0.1-0.2-0.4-0.4-0.7-0.7s-0.5-0.6-0.7-0.8C0,33-0.1,32.7-0.1,32.3
	c0-0.4,0.1-0.8,0.3-1.3c0-0.1,0.2-0.3,0.5-0.6C0.8,30.3,1,30.2,1,30.2c0.1,0,0.2-0.1,0.3-0.3c0.1-0.1,0.2-0.3,0.3-0.4
	c0.1-0.1,0.2-0.1,0.4-0.1l0.1-0.1c0,0-0.1,0-0.1,0l0-0.1l1-0.3l0.3-0.3l0.2-0.1l0.2-0.1c0.1,0,0.3-0.1,0.4-0.2
	c0.2-0.1,0.4-0.2,0.6-0.3c0,0,0.1,0,0.1,0c0,0,0.1,0.1,0.1,0.1c0.3-0.1,0.6-0.3,0.9-0.5l0.4-0.3c0.1-0.1,0.2-0.1,0.3-0.1
	c0.1,0,0.2,0,0.2-0.1L7,27.4l0.3,0l-0.2-0.1L7.4,27v0.4c0.1-0.1,0.3-0.1,0.6-0.2c0.2-0.1,0.4-0.2,0.6-0.3c0.1-0.1,0.2-0.1,0.3-0.1
	c0.1,0,0.2,0,0.3,0.1c-0.2,0.1-0.4,0.2-0.5,0.3l-0.8,0.3c0,0,0,0.1,0,0.1l0,0c0,0,0,0,0.1,0l0.3,0c0.2-0.1,0.3-0.2,0.4-0.3
	c0.1,0,0.4-0.1,0.8-0.3l0,0.1l-1,0.4l-0.1,0.1c0,0-0.1,0.1,0,0.2l-0.4,0.2c0,0,0-0.1,0-0.1H7.5c0.1,0.1,0.1,0.1,0.1,0.1
	c-0.1,0-0.2,0.1-0.3,0.2c-0.1,0.1-0.2,0.2-0.3,0.2c-0.1,0-0.2,0.1-0.3,0.1c-0.1,0-0.2,0-0.2,0.1L6,29.1c0,0-0.1,0-0.2,0
	c-0.1,0-0.1,0-0.2,0l-0.2,0.1l0.1,0.3c0.1-0.1,0.2-0.1,0.4-0.2c0.1,0,0.2-0.1,0.3-0.1l0,0.1l-0.7,0.3c0,0-0.1,0.1-0.1,0.1
	c0,0-0.1,0.1-0.1,0.1L5,29.8l0.2-0.2l-0.1-0.1l-0.9,0.5l0,0.1c0.1,0,0.2-0.1,0.3-0.1c0.1,0,0.3-0.1,0.4-0.2
	c-0.1,0.2-0.3,0.3-0.4,0.4l-0.9,0.6l0,0l-0.6,0.3c-0.1,0.2-0.3,0.4-0.5,0.6c-0.2,0.2-0.4,0.5-0.5,0.7C2.1,32.6,2,32.9,2,33.1
	l0.1-0.2c0,0.1,0,0.3,0,0.5c0,0.4,0.1,0.8,0.3,1.1c0.2-0.1,0.3-0.3,0.3-0.5c0-0.1,0-0.1,0-0.2c0-0.1,0-0.2,0-0.2c0,0,0-0.1,0-0.1
	h0.1c0.1,0,0.2,0.1,0.3,0.1c0.1,0.1,0.2,0.1,0.2,0.1c0.1,0,0.2-0.1,0.4-0.1c0.1,0,0.2-0.1,0.3-0.1C3.9,33.6,4,33.6,4,33.6
	c0.2,0,0.4-0.1,0.8-0.1c0.3-0.1,0.6-0.1,0.8-0.1c0.5,0,1.1-0.1,1.7-0.4c0.5-0.1,0.8-0.2,1.1-0.3c0.1,0,0.4-0.1,0.8-0.3
	c0.1,0,0.2-0.1,0.3-0.1c0.1-0.1,0.2-0.1,0.3-0.2c0.1,0,0.3-0.1,0.4-0.1c0.2,0,0.3-0.1,0.4-0.1c0,0,0.1,0,0.1-0.1l0.1-0.1l1-0.3v0
	l1-0.3l0,0c0,0,0,0,0,0l0.6-0.3l1.2-0.4c0,0,0,0,0.1-0.1c0-0.1,0-0.1,0.1-0.2l0,0.1l2.7-5.1l0.1,0l0.4-0.7c0.1-0.2,0.2-0.3,0.3-0.5
	c0.1-0.2,0.2-0.3,0.2-0.4l0.8-1c0,0,0-0.1,0.1-0.1c0-0.1,0-0.1,0.1-0.1c0,0,0.2-0.3,0.5-0.7c0,0,0,0,0-0.1c0,0,0,0,0.1-0.1l0.4-0.8
	l0.4-0.5l0.3-0.4c0.2-0.4,0.3-0.6,0.4-0.7l0.4-0.4c0.3-0.4,0.5-0.7,0.5-0.7l0.9-1.4c0.1-0.1,0.2-0.2,0.3-0.4
	c0.1-0.1,0.2-0.2,0.3-0.3c0.2-0.2,0.3-0.3,0.4-0.5c0,0,0-0.1,0-0.1c0,0,0-0.1,0-0.1c0-0.1,0-0.2,0-0.2c0.2-0.3,0.5-0.5,0.8-0.8
	c0,0,0,0,0,0l0,0c0-0.1,0.1-0.2,0.2-0.3c0.1-0.1,0.2-0.3,0.2-0.3c0.2-0.2,0.3-0.5,0.5-0.6c0.2-0.2,0.3-0.4,0.4-0.5
	c0.2-0.2,0.4-0.4,0.4-0.5c0-0.1,0.1-0.2,0.2-0.3c0.1-0.1,0.2-0.3,0.3-0.4l0.6-0.8c0.1-0.1,0.2-0.2,0.3-0.4l0.2,0.2
	c0-0.1,0-0.2,0.1-0.3c0-0.1,0.1-0.2,0.1-0.3C29,9.2,29.4,8.7,29.9,8c0.4-0.5,0.7-1,1.1-1.4l0.7-0.9l1.3-1.6c0,0,0.1-0.1,0.2-0.1
	c0.1,0,0.2-0.1,0.2-0.1c0.1-0.1,0.1-0.2,0.1-0.3l-0.1-0.1l-0.1-0.2l-0.1,0.1l0.2,0.1l-0.6,0.1l-0.4,0.1v0.1c0.1,0,0.3,0,0.6-0.1v0.1
	C32,4,31.4,4.1,31.1,4.2l-1.6,0.5c-0.1,0-0.3,0.1-0.5,0.2c0,0-0.1,0-0.1,0.1l0.1,0c0.5-0.1,0.9-0.2,1.2-0.3l-3.5,1.3v0l0.3-0.3
	l-0.4,0.1c-0.1,0-0.1,0.1-0.2,0.1C26.2,6,26.1,6,26.1,6c-0.1,0-0.2,0-0.3-0.1l-0.1,0c0,0-0.1,0-0.1,0.1L25.9,6l-3.4,1.6
	c0,0,0-0.1,0-0.1c0,0,0-0.1,0-0.2l-1.2,1.1l0-0.2c-0.5,0.1-0.7,0.2-0.8,0.3c-0.1,0-0.1,0.1-0.1,0.3l0.3-0.2c0.1,0,0.2,0,0.2,0.1
	c0,0.1,0,0.2-0.1,0.2c-0.1,0.2-0.4,0.4-0.6,0.6H20c-0.1,0-0.3,0-0.3,0l-0.2,0.6l-0.2-0.4c0.2-0.1,0.3-0.2,0.4-0.3L20,9.2l-0.1-0.2
	l-0.1-0.2l0,0.3c-0.1,0-0.3,0-0.5,0c0,0.1-0.1,0.1-0.1,0.2S19,9.4,19,9.5l-0.1-0.1c0,0-0.1-0.1-0.1-0.1l-0.2,0.5L18.1,10l-0.6,0.2
	l0-0.4l-0.5,0.5L17,10.3l0,0.4l-0.2-0.3c0,0,0,0.1,0,0.1c0,0,0,0.1,0,0.1c0,0.1-0.1,0.2-0.2,0.4c-0.1,0.2-0.2,0.3-0.3,0.4
	c-0.1,0-0.2,0.1-0.4,0.2s-0.3,0.2-0.4,0.3h0.2L15,12.4v-0.2l-0.1,0.1l-0.1-0.2L14.5,13c0,0-0.1,0-0.1,0c0-0.1,0-0.1,0-0.2l-1,0.7
	c0,0,0,0,0,0v0l-0.4,0.4c0-0.1,0-0.2,0-0.2c0,0,0-0.1,0-0.1c0,0-0.1,0-0.1,0c0,0.1,0.1,0.2,0.1,0.3l0,0.3c0,0.1,0,0.2-0.1,0.4l0,0.1
	c-0.1,0-0.1,0-0.2-0.1l-0.3,0.5c0,0,0,0,0,0h0l-0.4,0.8l-0.1,0l-0.1,1c0.6-1,1.3-1.8,2.3-2.6c0-0.2,0.2-0.4,0.5-0.6
	c0.3-0.2,0.5-0.3,0.7-0.2c0.1-0.1,0.4-0.4,0.8-0.8c0.4-0.4,0.7-0.7,1.1-1c0.3-0.3,0.7-0.5,1-0.7l0.1,0.1l-0.4,0.5L17,11.8l-0.9,1
	L16,12.7l-0.8,0.9v0c-0.3,0.2-0.5,0.4-0.5,0.5c-0.2,0.3-0.4,0.5-0.5,0.7l-0.5,0.7c-0.1,0.1-0.2,0.2-0.4,0.4l-0.5,0.7
	c0,0.1-0.1,0.3-0.1,0.4c0,0.2-0.1,0.3-0.1,0.4c0,0-0.1,0.1-0.1,0.2c-0.1,0.1-0.1,0.2-0.1,0.2c0.2,0.4,0.4,0.8,0.6,1.2
	c0,0,0.1,0,0.2,0.1c0.1,0,0.2,0,0.2,0c1-0.2,1.8-0.4,2.4-0.5c0.4-0.1,0.9-0.4,1.4-0.7l1.1-0.6c0.1-0.1,0.3-0.2,0.4-0.3
	c0.2-0.1,0.4-0.2,0.6-0.4c0,0,0.1-0.1,0.2-0.1c0.1-0.1,0.2-0.1,0.3-0.1c0.1,0,0.2,0.1,0.3,0.2c0,0,0,0,0.1,0c0,0,0.1,0,0.1,0
	c0,0,0.1,0,0.1,0c0.1,0,0.1,0,0.1,0v0.3l-0.3-0.1l-0.1,0l0.3,0.3l0.2,0l-0.4,0.3l0.1,0.2l-0.9,1l-0.1,0.1l0.3,0.1
	c-0.2,0.1-0.5,0.3-0.8,0.5c-0.3,0.2-0.6,0.4-0.8,0.6c-0.1,0.2-0.4,0.3-0.7,0.4c-0.3,0.1-0.5,0.2-0.6,0.3c0,0-0.2,0.1-0.4,0.1
	l-0.4,0.1c0,0-0.1,0.1-0.2,0.1c-0.1,0-0.1,0.1-0.2,0.1c-0.2,0-0.4,0-0.5,0c-0.1,0-0.3,0-0.4,0c0,0,0,0.1,0,0.2l-1.3-0.2h-0.1
	c-0.1-0.1-0.3-0.3-0.6-0.5c-0.3-0.2-0.5-0.5-0.6-0.8c-0.1-0.3-0.3-0.6-0.6-0.9c-0.3-0.3-0.5-0.6-0.6-0.8c-0.6-1-1-1.9-1-2.8
	c0-0.4,0.1-0.8,0.2-1.2c0.1-0.2,0.2-0.5,0.4-0.7c0.2-0.3,0.3-0.5,0.4-0.6c0.2-0.3,0.3-0.5,0.5-0.6c0,0,0.1-0.1,0.2-0.1
	s0.1,0,0.2-0.1c0.1-0.1,0.2-0.1,0.2-0.1c0-0.2,0.1-0.4,0.2-0.5c0.1-0.1,0.2-0.3,0.4-0.4c0.2-0.1,0.3-0.3,0.4-0.4
	c0.2-0.2,0.6-0.5,1.2-1l0.7-0.5c0.7-0.5,1.2-0.9,1.5-1.1c0.4-0.2,0.7-0.4,1-0.6c0.3-0.2,0.6-0.3,0.8-0.5l1.1-0.6
	c0,0.1,0.1,0.2,0.2,0.3c0.1-0.1,0.3-0.3,0.6-0.5c0.2-0.2,0.5-0.4,0.7-0.6c0.2-0.1,0.4-0.2,0.7-0.3c0,0,0.1-0.1,0.2-0.1
	c0.1-0.1,0.2-0.1,0.2-0.1c0,0,0,0,0.1,0c0.2-0.1,0.5-0.3,1-0.5c1.2-0.6,2.1-1,2.7-1.3c0.3-0.1,0.7-0.3,1-0.4
	c0.5-0.2,0.9-0.4,1.2-0.5c0.3-0.1,0.7-0.2,1-0.2l0.4,0c0.1-0.1,0.1-0.2,0.1-0.2c0.2-0.1,0.4-0.2,0.7-0.3c0.3-0.1,0.6-0.2,1-0.4
	l0.1,0c0.1,0,0.1,0,0.2,0.1c0.1,0,0.2,0.1,0.3,0.1c0.1-0.1,0.2-0.2,0.3-0.3s0.3-0.1,0.5-0.1c0.2,0,0.4-0.1,0.5-0.1
	c0,0,0.1,0,0.2,0.1h0.1c0.3-0.2,0.7-0.3,1.2-0.3c0.2,0,0.5,0,0.9,0.1c0.3,0,0.6,0.1,1,0.3c0.4,0.2,0.6,0.3,0.8,0.3
	C37.4,1,37.6,1,37.8,1.1c0.5,0.1,0.8,0.2,1.1,0.4c0.2,0.1,0.4,0.2,0.7,0.4C39.8,2,40,2.1,40.2,2.2h0.1c0.2,0,0.5,0,0.9,0
	c0.4,0,0.8,0.1,1.1,0.1c0.2,0,0.4,0.1,0.8,0.1c0.4,0,0.8,0.1,1.1,0.2c0.3,0.1,0.6,0.3,0.8,0.5l0.6,0.9l0.4,0.6
	C46,4.8,46.1,5,46.2,5.1c0.1,0.1,0.2,0.3,0.3,0.5c0.1,0.2,0.2,0.4,0.2,0.7c0,0.1,0,0.2-0.1,0.3c-0.1,0.1-0.2,0.2-0.2,0.3l0.3,0
	c-0.1,0.6-0.2,1.1-0.4,1.6c-0.2,0.5-0.5,1.2-0.9,2.1c-0.1,0.3-0.3,0.6-0.6,0.9s-0.4,0.5-0.5,0.6l-0.5,0.6l-1,1.3
	c-0.3,0.4-0.6,0.8-1,1.1l-0.6,0.7c-0.1,0.1-0.2,0.3-0.4,0.5c-0.1,0.2-0.3,0.4-0.4,0.6c-0.1,0.1-0.3,0.3-0.5,0.4
	c-0.2,0.1-0.3,0.3-0.5,0.4c-0.1,0.1-0.2,0.2-0.3,0.4c-0.1,0.2-0.2,0.3-0.3,0.4l-0.2,0.3l-0.2-0.1c0,0,0,0.1,0,0.2c0,0.1,0,0.1,0,0.1
	c-0.5,0.6-0.8,0.9-0.8,0.9l-0.9,0.8l-0.3,0.3l-0.3,0.2L36,21v0.2l-0.3,0c0,0.1-0.1,0.2-0.1,0.3s-0.1,0.3-0.2,0.3
	c-0.5,0.5-1,0.9-1.6,1.3c-0.6,0.5-1.3,1-2,1.5l-1.8,1.1c-0.5,0.3-1,0.6-1.4,0.9l-2.5,1.7l-0.8,0.4c-0.4,0.2-0.6,0.3-0.7,0.4
	l-1.9,1.2l-0.2,0.1l0.1,0.2c0,0,0.1,0,0.3-0.1l0.1,0.2c0,0,0.1-0.1,0.1-0.1c0.1,0.4,0.3,0.8,0.5,1.3c0,0-0.1,0-0.1,0
	c0,0-0.1,0-0.1,0c0,0-0.1,0-0.1,0.1l0.4,0.5l-0.1,0l-0.1,0.1c0.3,0.2,0.6,0.3,0.7,0.5v0l0.1,0c0,0,0.1,0.1,0.1,0.2
	c0,0.1,0,0.1,0,0.1v0.2c0,0.3,0.1,0.6,0.4,0.9c0.1,0.1,0.2,0.2,0.2,0.3c0.1,0.1,0.1,0.2,0.2,0.3c0.1,0.1,0.1,0.1,0.2,0.2
	s0.2,0.1,0.2,0.2v0c0,0.1,0,0.2-0.1,0.4l0.2-0.1c0.1,0.1,0.2,0.4,0.4,0.6c0,0-0.1,0-0.3-0.1l0.3,0.3L26.1,37
	c0.2-0.1,0.3-0.1,0.3-0.1l0-0.2c0.1,0,0.2,0.1,0.4,0.2c0.2,0.1,0.3,0.2,0.4,0.3c0.1,0.2,0.2,0.4,0.4,0.6c0.2,0.2,0.3,0.4,0.4,0.4
	c0.1,0.2,0.3,0.4,0.6,0.6c0.3,0.2,0.4,0.4,0.5,0.5l0.2,0.4c0,0,0.1,0.1,0.1,0.2c0,0.1,0.1,0.1,0.2,0.2c0,0.1,0.1,0.2,0.2,0.3
	c0.2,0.1,0.3,0.2,0.4,0.2c0,0,0.1,0.1,0.1,0.2c0,0.1,0.1,0.1,0.1,0.2l0.6,0.5c0.2,0.1,0.3,0.3,0.5,0.6l0.2,0
	c0.1,0.2,0.2,0.4,0.4,0.5c0.1,0.1,0.3,0.3,0.5,0.4c0.2,0.1,0.4,0.3,0.6,0.4c0.4,0.4,0.9,0.8,1.4,1.1c0.1,0.1,0.7,0.5,1.8,1.1
	c0.3,0.2,0.5,0.3,0.6,0.4c0.6,0.4,1.1,0.7,1.5,0.9c0.3,0.2,0.6,0.3,0.8,0.4c0.2,0.1,0.4,0.2,0.6,0.3l0.8,0.3c0.1,0,0.2,0.2,0.3,0.3
	c0.1,0,0.2-0.1,0.3-0.1l0.3,0.2c0.6,0.2,1,0.4,1.1,0.4c0.1,0,0.3,0.1,0.5,0.1c0.2,0,0.4,0,0.6,0.1c0.2,0,0.5,0.1,0.7,0.2
	c0.2,0.1,0.4,0.1,0.7,0.2c0.6,0.1,1.1,0.1,1.5,0.1c0.4,0,0.9-0.1,1.4-0.3l0.7-0.1h0.1h0.3c0.2,0,0.4,0,0.4-0.1
	c0.2-0.3,0.3-0.7,0.3-1.3c0-0.4-0.1-0.8-0.3-1.3c-0.2-0.4-0.3-0.7-0.3-0.9c-0.2-0.5-0.4-1.2-0.7-2.1c0,0,0,0-0.1,0h0l0.1-1L48.3,42
	c0,0,0,0,0-0.1l0.2,0.1l-0.1-0.3l0.3-0.1l0.2,0.4l0.1-0.2l1,1.4l0,0.1c0,0,0,0.1,0,0.1c0.1,0.2,0.3,0.3,0.5,0.5
	c0.2,0.2,0.3,0.3,0.5,0.5c0.2,0.2,0.3,0.5,0.4,0.7c0.1,0.2,0.3,0.4,0.4,0.6c0,0,0.1,0.1,0.2,0.2C52.1,45.9,52.1,46,52.1,46.1z
	 M13,42.9c-0.2,0.1-0.3,0.2-0.3,0.3c0,0.1,0,0.3,0.1,0.4L13,42.9z M18,30.3l-0.1-0.1l-0.3,0.7c0,0,0.1,0,0.1,0L18,30.3z M28.1,15.7
	c0,0,0.1,0.1,0.1,0.1c0.3-0.5,0.9-1.1,1.6-2l0.8-0.9l-0.1-0.1l0.9-1.2l0.5-0.7c0,0,0,0.1,0.1,0.1l-0.4,0.6c0,0-0.2,0.2-0.5,0.6
	c0,0,0.1,0.1,0.1,0.1l0.4-0.7c0,0,0.1,0,0.1,0c0,0,0.1,0,0.1,0L33,9.9l1.1-1.4c0,0,0.1-0.2,0.5-0.6c0-0.1,0.1-0.2,0.1-0.3
	c0-0.1,0.1-0.2,0.1-0.2c0-0.1,0.1-0.1,0.2-0.2c0.1-0.1,0.2-0.1,0.3-0.2l2-2.5l0.4-0.6c-0.1,0-0.3-0.1-0.3-0.1
	c-0.2,0-0.4,0.1-0.7,0.2c-0.2,0.1-0.4,0.3-0.4,0.5h0.2L36.1,5l-0.4,0.4c0,0-0.1,0.1-0.1,0.2c0,0.1-0.1,0.1-0.1,0.1
	c-0.3,0.1-0.5,0.3-0.6,0.6c0,0-0.1,0.2-0.1,0.5l-0.5,0l0.1-0.3c-0.2,0.1-0.3,0.2-0.3,0.3c0,0.1,0,0.2,0,0.3c0,0.2-0.1,0.4-0.3,0.5
	c0,0-0.1,0.1-0.1,0.2L34,7.9l-1.4,1.8l0.1-0.3c0,0-0.1,0-0.1,0c0,0.1-0.1,0.2-0.1,0.3l-0.1-0.1c0,0-0.2,0.2-0.5,0.6l0.1,0l0.3-0.2
	l0.1,0.1L28.1,15.7z M27.1,16.9l0.1,0.1l0.8-1.1l-0.1-0.1C27.6,16.3,27.3,16.7,27.1,16.9z M26.4,18.5l0.1,0.1l0.6-0.8l-0.1,0
	L26.4,18.5z M21.9,24.5L21.9,24.5l0.5-0.6l-0.1-0.1L21.9,24.5z M21.4,27.5l1.2-2.4c0.1-0.2,0.2-0.3,0.3-0.5c0.1-0.2,0.2-0.4,0.3-0.6
	c0.1-0.2,0.4-0.6,0.8-1.3l1.9-3l0.6-0.9l-0.1-0.1l-0.9,1.1l-0.1,0l0.5-0.9c0,0-0.1,0-0.1-0.1c-0.3,0.5-0.6,0.9-0.9,1.4l-0.5,0.8
	l0.6-0.6c0,0,0.1-0.1,0.2-0.2c0,0.1,0,0.2,0,0.3c0,0.2-0.1,0.3-0.3,0.4c-0.1,0.1-0.3,0.2-0.4,0.5l-0.5,0.9c-0.1-0.1-0.2-0.2-0.2-0.2
	l0.1-0.5l-1.1,1.6l0.1,0.1l0.5-0.8c0,0,0.1,0.1,0.1,0.1l-1.6,2.6l-0.1-0.1l0.1-0.3l-0.4,0.1c-0.1,0.2-0.3,0.5-0.4,0.7
	S21,26,20.9,26.2l-1,1.5l0.2-0.5c0.1-0.2,0.2-0.4,0.3-0.8l0.2,0c0-0.1,0-0.1,0-0.1c0,0-0.1,0-0.1,0c0,0-0.1,0-0.1,0l-0.4,0.6
	c-0.1,0.1-0.2,0.2-0.4,0.4v0.1c0,0.1,0,0.2,0.1,0.3c0,0,0.1,0,0.1,0h0.1c0,0.1,0,0.2,0,0.4h0c0.3-0.4,0.6-1.1,1.1-1.9l0.1,0.1
	c0,0.3-0.2,0.7-0.5,1c-0.2,0.3-0.3,0.5-0.4,0.8l0.8-0.4c0,0,0.1,0,0.2-0.1C21.3,27.6,21.4,27.5,21.4,27.5z M21.7,27.2
	c4.3-2,8-4.6,11.2-7.9c0.4-0.4,0.7-0.6,0.8-0.7l1-0.7l-0.1,0l0.5-0.5c0,0,0-0.1,0.1-0.2c0-0.1,0.1-0.1,0.1-0.2l1-0.9
	c0.1-0.1,0.1-0.2,0.2-0.3s0.1-0.2,0.2-0.3c0,0,0.1-0.1,0.2-0.1c0.1,0,0.2,0,0.3-0.1c0,0,0-0.1,0-0.1h-0.3c0.1,0,0.2-0.1,0.3-0.1
	c0.1,0,0.2-0.1,0.2-0.1c0,0,0.2-0.3,0.5-0.7l0.9-1.1l0.2-0.1l0.3-0.1v-0.1c0.1-0.1,0.2-0.2,0.2-0.2l0.1-0.2c0-0.1,0-0.1,0.1-0.2
	l0.6-1l1.1-1.8c0.1-0.2,0.2-0.6,0.3-1c0-0.2,0-0.4,0-0.8c0-0.8-0.1-1.5-0.3-2.1c-0.2-0.5-0.3-0.9-0.5-1.1c-0.1-0.2-0.4-0.3-0.8-0.3
	C39.1,4.1,38.5,4,38.2,4h-0.1c-0.1,0-0.2,0.1-0.4,0.2c-0.1,0.1-0.2,0.2-0.3,0.3c-0.1,0.1-0.1,0.2-0.2,0.3l-0.3,0.3
	c-0.1,0.1-0.2,0.2-0.3,0.3c0,0-0.2,0.3-0.5,0.7l-0.7,1l-1.3,1.7l-0.8,0.9c-0.7,1-1.1,1.5-1.1,1.6c-0.1,0.1-0.2,0.3-0.3,0.5
	c-0.1,0.2-0.2,0.3-0.3,0.4l-0.9,0.9c-0.5,0.5-0.8,0.9-1.1,1.3c-0.4,0.5-0.8,1.1-1.2,1.8l-0.6,0.9l-1.6,2.5c-0.3,0.4-0.5,0.8-0.6,1
	c-0.5,0.8-1.1,1.7-1.6,2.6c-0.3,0.4-0.6,1-1,1.7c-0.1,0.1-0.1,0.3-0.2,0.4c0,0.1-0.1,0.3-0.2,0.4L21.7,27.2z M22.8,29.8L22.8,29.8
	l0.9-0.5c0.3-0.2,0.6-0.4,0.9-0.6c0.3-0.2,0.7-0.4,1.2-0.7c0.5-0.3,0.8-0.6,1.2-0.8c0.3-0.3,0.6-0.5,0.9-0.6l1.3-0.9l0.9-0.6
	c1-0.7,1.8-1.3,2.3-1.6c0.8-0.6,1.5-1.2,2.3-1.8c0.1-0.1,0.6-0.5,1.3-1.3l1.6-1.5l0.5-0.4c0-0.1,0.1-0.3,0.3-0.6
	c0.3-0.3,0.4-0.4,0.6-0.3l0.4-0.7c0,0,0.1,0,0.1,0s0.1,0,0.1,0c0,0,0.4-0.5,1-1.2l1.3-1.6l0.7-0.9c0.7-0.8,1-1.2,1.1-1.4
	c0.6-0.9,1-1.5,1.2-1.8c0.2-0.5,0.5-1.3,0.7-2.1c0-0.1,0.1-0.2,0.1-0.4c0-0.2,0.1-0.3,0.1-0.5c0-0.2-0.1-0.4-0.2-0.6
	c0,0.3,0,0.5,0,0.5c0,0-0.1,0-0.1,0.1l-0.1,0c0,0.1,0,0.2,0,0.3c0,0.1,0,0.2,0,0.3l-0.7,1.5c0,0-0.1,0.1-0.1,0.2
	c0,0.1-0.1,0.1-0.1,0.2c-0.1,0-0.2,0.2-0.3,0.3c-0.1,0.2-0.1,0.3-0.1,0.4c-0.6,0.7-0.8,1.1-0.8,1c-0.1,0.2-0.2,0.4-0.3,0.6
	c-0.1,0.2-0.2,0.4-0.3,0.5l-0.1,0l0.1-0.1c0,0,0-0.1,0.1-0.2c-0.1,0-0.2,0.1-0.3,0.2c-0.1,0.1-0.2,0.1-0.3,0.2
	c0,0.1-0.1,0.2-0.2,0.3c-0.1,0.1-0.1,0.2-0.2,0.3c-0.2,0.2-0.3,0.4-0.4,0.4l-0.2,0.1c0,0,0,0.1,0,0.2c0,0.1,0,0.2-0.1,0.2
	c0,0-0.1,0-0.1,0h-0.1c-0.5,0.6-0.8,1.1-1,1.4h-0.3V15l0.3,0.1c-0.2,0-0.4,0.1-0.4,0.1c-0.2,0.4-0.4,0.6-0.5,0.8l-0.1-0.2l-0.3,0.3
	l0.1,0l-0.5,0.6l-0.2-0.4l0,0.5c-0.1,0-0.2,0-0.2,0c0,0,0,0.1,0,0.2c0,0.1,0,0.1-0.1,0.2l-0.4,0.3l-0.3,0.1c-0.1,0-0.2,0.1-0.2,0.1
	l-0.8,1c0,0.1-0.1,0.1-0.2,0.2c-0.1,0.1-0.2,0.1-0.3,0.2c0,0-0.1,0.1-0.1,0.2c0,0.1-0.1,0.2-0.2,0.3c0,0-0.1,0-0.1,0.1
	c0,0-0.1,0-0.1,0.1L34,21.2c-0.1,0.2-0.2,0.3-0.3,0.4c-0.1,0.1-0.1,0.3-0.2,0.4l-0.2-0.2L33,22.1v0.3l-0.1-0.1l-0.5,0.3
	c0,0-0.2,0.1-0.4,0.2c0,0-0.1,0.1-0.1,0.2c0,0.1-0.1,0.1-0.1,0.2c-0.1,0.1-0.3,0.3-0.4,0.4s-0.3,0.2-0.4,0.4c0,0-0.1,0.1-0.1,0.2
	c0,0.1-0.1,0.2-0.1,0.2l-1.3,0.8c0,0-0.1,0-0.2,0.1c-0.1,0-0.1,0.1-0.2,0.1l-0.3,0.4c-0.5,0.4-0.9,0.7-1.3,0.8
	c-0.1,0-0.2,0.1-0.4,0.1c-0.2,0.1-0.3,0.2-0.5,0.4c-0.1,0.1-0.2,0.2-0.3,0.3l-1.3,0.7c-0.2,0.1-0.7,0.4-1.5,0.8c-0.1,0-0.2,0-0.3,0
	h-0.2l-0.4,0.5l-0.3,0c0,0.1-0.1,0.1-0.1,0.2c0,0.1-0.1,0.1-0.1,0.2c0.1,0.1,0.2,0.3,0.3,0.5C22.5,30.1,22.7,30,22.8,29.8z
	 M31.1,44.9l-0.7-0.7l-0.1,0.1L31.1,44.9L31.1,44.9z M36.4,46.5l-0.5-0.4l-0.1,0.1l0.5,0.5L36.4,46.5z M38.1,47.8
	C38,47.6,38,47.5,38,47.4c-0.5-0.2-0.7-0.3-0.8-0.4v0c0,0,0,0,0,0L38.1,47.8z M15,38.5l0.4-0.9c0-0.1,0.1-0.4,0.3-0.6l-0.1,0
	l-0.7,1.6C14.9,38.5,14.9,38.5,15,38.5z M93,22.8c0.4,0,0.6-0.1,0.9-0.2c0.1,0,0.2-0.1,0.3-0.1c0.1,0,0.3-0.1,0.4-0.2
	c0.1-0.1,0.2-0.2,0.2-0.4c0-0.2,0.1-0.3,0.2-0.5c0.1-0.2,0.2-0.3,0.3-0.4c0,0,0.1-0.1,0.2-0.1c0.1,0,0.1-0.1,0.1-0.1
	c0.1-0.3,0.3-0.5,0.5-0.5c0.1,0,0.1,0,0.1-0.1c0,0,0.1-0.1,0.1-0.2c0.1-0.1,0.1-0.1,0.1-0.2l-0.1-0.1c0.1-0.4,0.4-0.7,0.8-1.1
	c0.1,0,0.2,0,0.2,0c0,0,0,0.1,0,0.2c0,0,0.1-0.1,0.3-0.2c0.1-0.1,0.2-0.2,0.4-0.3c0.1-0.1,0.2-0.3,0.2-0.5c0,0,0-0.1,0.1-0.1
	c0,0,0.1-0.1,0.2-0.1l0-0.1c0,0,0-0.1,0-0.3c0-0.1,0-0.3-0.2-0.4c-0.1-0.1-0.3-0.3-0.6-0.6c-0.3-0.3-0.5-0.5-0.8-0.7
	c-0.1-0.1-0.2-0.1-0.3-0.1s-0.2,0-0.3,0.1c-0.5,0.4-1,0.7-1.4,1.1c-0.3,0.3-0.7,0.8-1.1,1.6c-0.6,0.9-1,2.1-1.2,3.4
	c0,0.1,0,0.2,0,0.4c0,0.2,0,0.4,0,0.5C92.6,22.7,92.8,22.8,93,22.8z M97.4,18.9L97.4,18.9C97.4,18.8,97.3,18.8,97.4,18.9L97.4,18.9z
	 M98.6,17.7L98.6,17.7l-0.1-0.1C98.4,17.6,98.5,17.7,98.6,17.7L98.6,17.7z M90,23.3c0.1,0,0.2,0,0.3,0C90.2,23.2,90.1,23.2,90,23.3z
	 M114.9,25.2c0,0,0,0.1,0,0.2c0,0.1,0,0.1-0.1,0.1c-0.1,0-0.1,0-0.2,0c0,0-0.1,0-0.1,0.1c-0.1,0-0.1,0-0.2,0.1c0,0.1-0.1,0.1,0,0.2
	c0,0.2,0,0.3-0.2,0.3c-0.1,0-0.2,0.1-0.3,0.3l-0.2-0.1c0,0,0,0.1,0,0.1c0,0,0,0.1-0.1,0.2c-0.1,0.1-0.1,0.1-0.1,0.2
	c0,0,0,0.1-0.1,0.1h0c-0.1,0-0.2,0.1-0.4,0.2s-0.2,0.2-0.3,0.2c0,0-0.1,0-0.2,0.1c-0.1,0-0.1,0.1,0,0.2c0,0,0,0-0.1,0.1
	c0,0-0.1,0-0.1,0h0c-0.1,0-0.2,0-0.3,0.1c-0.1,0.1-0.2,0.1-0.3,0.1c0,0.1,0.1,0.1,0.1,0.1c0.1,0,0.1,0,0.1,0.1
	c-0.4,0.1-0.7,0.3-0.9,0.7c0,0,0,0,0,0.1c0,0,0.1,0,0.1,0.1c0,0.1-0.2,0.1-0.3,0.1c0,0-0.1,0-0.1,0s-0.1,0-0.2,0.1
	c-0.1,0.1-0.1,0.1-0.2,0.1c0,0.1-0.1,0.2-0.2,0.3c-0.1,0.1-0.2,0.1-0.2,0.2c0,0,0,0.1,0,0.1c0,0,0.1,0.1,0.1,0.1
	c-0.1,0-0.2,0.1-0.2,0.2c-0.1,0.1-0.1,0.1-0.2,0.2c-0.1,0-0.2,0.1-0.3,0.1c-0.1,0-0.2,0.1-0.4,0.1c-0.2,0-0.3,0.1-0.4,0.2l0,0.1
	l-0.1,0c-0.1,0-0.1,0-0.1,0.1c0,0.1,0,0.1-0.1,0.2c-0.1-0.1-0.1-0.1-0.2-0.1S108,30.9,108,31c0,0.1-0.1,0.3-0.4,0.4l-0.6,0.5
	c-0.1,0.1-0.3,0.2-0.6,0.3c-0.2,0-0.4,0.1-0.5,0.2c-0.2,0.1-0.4,0.2-0.5,0.2c-0.2,0-0.3,0.1-0.4,0.2c-0.1,0.1-0.1,0.1-0.2,0.2
	c-0.1,0.1-0.1,0.1-0.2,0.2c0,0-0.1,0.1-0.2,0.2c-0.1,0.1-0.2,0.2-0.2,0.3c0,0.1-0.1,0.2-0.2,0.3c-0.1,0.1-0.2,0.2-0.3,0.3
	c-0.1,0.1-0.2,0.3-0.4,0.5c-0.2,0.2-0.4,0.4-0.6,0.5v0l-0.2,0.6c0,0-0.1,0-0.2,0c-0.1,0-0.1,0.1-0.1,0.3c0,0.1,0,0.2-0.1,0.3
	c-0.1,0.1-0.2,0.2-0.3,0.3l-0.1,0.1h-0.1c-0.1,0-0.1,0-0.2,0.1c-0.1,0.1-0.1,0.2-0.2,0.2c-0.1,0-0.2,0.2-0.3,0.4
	c-0.1,0.2-0.2,0.3-0.3,0.4c-0.1,0-0.2,0.1-0.4,0.3c-0.2,0.2-0.4,0.2-0.5,0.2c0,0-0.2,0.1-0.3,0.3c-0.2,0.2-0.2,0.3-0.2,0.3
	c0,0.1-0.1,0.2-0.2,0.2c-0.1,0-0.2,0.1-0.4,0.3c0,0-0.1,0.1-0.2,0.2c-0.1,0.1-0.2,0.2-0.4,0.2c-0.1,0-0.2,0-0.3,0.1
	c0,0-0.1,0-0.1,0.1c0,0-0.1,0-0.1,0c-0.1-0.1-0.2-0.1-0.4-0.1c-0.2,0-0.3,0-0.4,0c-0.1,0-0.3,0-0.4-0.1c-0.1-0.1-0.2-0.1-0.3-0.1
	c0,0-0.1,0-0.1,0c-0.2-0.1-0.5-0.2-0.9-0.4c-0.4-0.2-0.8-0.4-1.1-0.6c-0.5-0.4-0.9-1-1-1.7c0-0.1,0-0.1,0-0.2c0-0.1,0-0.1-0.1-0.2
	c0-0.1,0-0.2,0-0.4c0-0.2,0-0.4,0-0.5c0-0.1,0-0.3,0-0.5c0,0,0,0,0,0c-0.1,0.1-0.2,0.2-0.4,0.4c0,0,0-0.1-0.1-0.1v0.1
	c0,0.3-0.2,0.5-0.5,0.6V36c0-0.1,0-0.2,0.1-0.3c0-0.1,0-0.2,0-0.3c-0.1,0.1-0.3,0.2-0.5,0.4c-0.2,0.2-0.4,0.3-0.5,0.4
	c0.3,0.1,0.4,0.1,0.4-0.1c0-0.2,0.2-0.2,0.4-0.2c0,0.3-0.2,0.6-0.3,0.7c-0.4,0.3-0.7,0.7-1.1,1.1c-0.3,0.4-0.6,0.6-0.9,0.7l-0.2,0.1
	c-0.3,0.3-0.6,0.4-0.8,0.5c-0.3,0.1-0.4,0.3-0.4,0.6c0,0-0.1,0-0.2,0c-0.1,0-0.2,0-0.3,0c-0.2,0.2-0.5,0.3-0.8,0.3
	c-0.3,0-0.7-0.1-1.1-0.4c-0.2-0.1-0.3-0.2-0.5-0.3c-0.2-0.1-0.3-0.2-0.4-0.3c0,0-0.1-0.1-0.1-0.1s-0.1,0-0.2,0c0,0-0.1,0-0.1,0
	s-0.2,0-0.3-0.1c-0.1,0-0.3,0-0.4,0c0-0.1-0.2-0.2-0.3-0.3c-0.2-0.1-0.3-0.3-0.3-0.4c-0.2-0.6-0.3-1.2-0.3-1.9
	c0-0.6,0.1-1.2,0.2-1.8c-0.1,0-0.2,0-0.3,0c0,0.1,0,0.1,0.1,0.2c-0.1,0-0.2,0.1-0.3,0.2c-0.1,0.1-0.2,0.2-0.2,0.2V35
	c0,0.1,0,0.2-0.1,0.2C82,35.3,82,35.4,82,35.4c0,0-0.1,0.1-0.2,0.3c-0.1,0.2-0.3,0.3-0.5,0.3c0,0-0.1,0-0.1,0c0,0-0.1,0-0.1,0.1
	c-0.1,0-0.2,0.1-0.4,0.2c-0.1,0.1-0.3,0.2-0.4,0.2c0,0-0.1,0-0.2,0.1c-0.1,0.1-0.2,0.1-0.3,0c0,0-0.1,0-0.2,0
	C79.4,36.9,79.2,37,79,37l-0.3,0l-0.6,0c-0.1,0-0.1-0.1-0.2-0.1c-0.1,0-0.1-0.1-0.2-0.1c-0.4-0.1-0.7-0.2-0.8-0.1
	c-0.1,0-0.2,0-0.2-0.1l-0.1,0.1c0,0-0.1,0-0.2-0.1c-0.1-0.1-0.1-0.1-0.2-0.1c0,0,0-0.1-0.1-0.1c0,0-0.1,0-0.1,0
	c-0.3-0.1-0.6-0.3-1-0.5c-0.1,0-0.2-0.1-0.3-0.2c-0.2-0.1-0.3-0.2-0.4-0.3c-0.2-0.3-0.3-0.5-0.3-0.7c0-0.1,0-0.1-0.1-0.2
	c-0.1,0-0.1-0.1-0.1-0.3c0-0.1,0-0.2,0-0.3c-0.1-0.3-0.1-0.5-0.1-0.8c0-0.2,0-0.5,0.1-1c0.1-0.7,0.3-1.1,0.5-1.4
	c0,0,0.1-0.2,0.1-0.5l0-0.1c0-0.1,0.1,0,0.1,0.1v-0.1c0-0.1-0.1-0.2-0.2-0.2c0,0,0.1,0.1,0,0.2c0,0.1,0,0.1,0,0.2c0,0-0.1,0-0.1-0.1
	c0,0-0.1,0.1-0.2,0.2c-0.1,0.1-0.2,0.1-0.3,0.1l-0.1-0.1c0,0.1,0,0.1,0,0.1c0,0,0,0-0.1,0.1c0,0,0,0,0.1,0.1l-0.2,0
	c0.1,0.2,0.1,0.3,0,0.2c-0.1,0-0.1-0.1-0.2-0.1c0,0,0-0.1,0-0.1c0,0,0,0-0.1,0h-0.1c0,0,0,0.1,0,0.1c0,0,0,0.1,0,0.1
	c0,0.1,0,0.1,0.2,0.1c0,0.1,0,0.1-0.1,0.2c-0.1,0-0.1,0-0.1,0c0,0,0,0.1,0.1,0.1c0,0,0,0.1-0.1,0c0,0.1,0.1,0.2,0.1,0.3
	c0,0.1-0.1,0.2-0.2,0.3c-0.2,0.2-0.5,0.5-0.7,0.9c-0.1,0.1-0.2,0.1-0.4,0.1c0,0,0,0.1,0,0.1c0,0.1,0,0.1,0.1,0.1
	c0,0-0.1,0.1-0.1,0.1c-0.1,0-0.1,0.1,0,0.2l0,0.1c0,0-0.1,0.1-0.1,0.1h0c-0.1,0-0.2,0.1-0.3,0.3c-0.2,0.3-0.3,0.4-0.4,0.5
	c0,0,0,0,0,0.1c0,0,0,0.1,0,0.1c-0.1,0.1-0.2,0.3-0.4,0.5c0,0.1,0,0.2,0,0.3c0,0.2-0.1,0.3-0.2,0.4c0-0.1,0-0.2,0.1-0.3
	c-0.1,0.1-0.2,0.2-0.3,0.4c-0.1,0.2-0.2,0.3-0.3,0.4c0.1,0,0.1,0,0.1,0.1c0,0,0,0.1,0,0.1c0,0.1-0.1,0.2-0.1,0.3
	c0,0.1-0.1,0.2-0.2,0.3c-0.1,0-0.1,0.1-0.1,0.3c0,0.1,0,0.2-0.1,0.3c0,0,0,0-0.1-0.1c0,0,0,0-0.1,0c0,0-0.1,0.1-0.1,0.2
	c0,0.1-0.1,0.1,0,0.2c0,0,0,0,0,0.1c-0.2,0.1-0.2,0.3-0.2,0.5c0,0.2,0,0.4-0.1,0.5c0,0.1-0.1,0.2-0.2,0.4c-0.1,0.1-0.1,0.3-0.2,0.4
	C69,39.7,69,39.9,69,40c-0.2,0-0.3,0.1-0.4,0.1c-0.2,0-0.3-0.1-0.4-0.2c0,0-0.1-0.1-0.3-0.1c-0.2,0-0.3-0.1-0.5-0.3
	c-0.2-0.2-0.4-0.3-0.5-0.3c-0.1,0-0.3-0.1-0.4-0.3c-0.1-0.2-0.3-0.3-0.4-0.3c-0.4-0.2-0.8-0.4-1.2-0.8c-0.4-0.3-0.7-0.5-0.8-0.6
	L64,37.1c0-0.1-0.1-0.3-0.2-0.4c-0.1-0.2-0.1-0.3-0.2-0.4c0,0,0-0.1-0.1-0.2c-0.1-0.1,0-0.2,0.1-0.2c-0.1,0-0.2-0.1-0.2-0.3
	c0-0.2,0-0.4,0.1-0.7c0-0.3,0.1-0.5,0.1-0.7c0.2-0.7,0.3-1,0.3-1.1c0-0.1,0.1-0.3,0.2-0.4c0.1-0.2,0.1-0.3,0.2-0.4c0,0,0,0,0.1,0
	c0,0,0,0,0.1,0c0-0.1-0.1-0.1,0-0.2c0-0.1,0-0.1,0-0.2c0,0,0.1,0,0.1,0c0,0,0,0.1,0.1,0.1l0.1-0.2c-0.1-0.1,0-0.3,0.1-0.3
	c0,0.1,0.1,0.1,0.1,0.2c0.1-0.1,0.1-0.1,0.1-0.2c0-0.1-0.1-0.2-0.2-0.3L65,31c0,0,0-0.1,0.1-0.3c0-0.2,0.1-0.3,0.3-0.3l0-0.1
	c0,0,0-0.1,0.1-0.1c0,0,0-0.1,0-0.1h0.1c0.1,0,0.2,0,0.3-0.1s0.1-0.2,0.1-0.2c0,0,0.1-0.1,0.1-0.2c0.1-0.1,0.1-0.2,0.1-0.3
	c0,0,0.1,0,0.1,0c0,0,0,0.1,0,0.1c0,0,0.1-0.1,0.1-0.1c0,0,0-0.1-0.1-0.1c0.1,0,0.1-0.1,0.1-0.2c0-0.1,0.1-0.2,0.1-0.3
	c0-0.1,0.1-0.1,0.3-0.1c0-0.5,0.3-0.8,0.8-1c0,0,0-0.1,0-0.1v-0.1c0-0.1,0-0.1-0.1-0.2c-0.2,0.1-0.4,0.3-0.4,0.5
	c0,0.1-0.1,0.1-0.1,0.2c-0.1,0.1-0.1,0.1-0.2,0.1c-0.2,0-0.3,0.1-0.3,0.3c0,0.1-0.1,0.1-0.1,0.1c-0.1,0-0.1,0-0.1,0l0-0.1
	c0,0,0,0,0-0.1c0,0,0-0.1,0-0.1c0-0.1,0-0.1-0.1-0.1c-0.1,0.3-0.2,0.5-0.2,0.8c0,0,0-0.1,0.1-0.1c0,0,0.1-0.1,0.1-0.1l0,0.1
	c-0.1,0.1-0.2,0.3-0.5,0.5c0,0-0.1,0.1-0.1,0.2c0,0.1-0.1,0.1-0.2,0.2l0-0.1c0,0,0.1-0.1,0.1-0.1c0,0,0-0.1-0.1-0.1v0
	c0,0,0,0.1-0.1,0.2C65,29.4,65,29.5,65,29.6c-0.4,0.1-0.6,0.3-0.6,0.6v0c0,0.1-0.1,0.2-0.2,0.3c-0.1,0.1-0.2,0.2-0.2,0.3
	c0,0,0,0-0.1,0.1c0,0-0.1,0-0.1,0c0,0-0.1,0-0.1,0c0,0-0.1-0.1-0.1-0.1v-0.1c0,0,0-0.1-0.1-0.1c0,0,0,0.1,0,0.2
	c0,0.2-0.1,0.3-0.2,0.5v-0.1c0,0,0-0.1-0.1,0c0,0,0,0.1,0,0.2c0,0.1,0.1,0.1,0.1,0.2l-0.1,0.1c0,0.1-0.1,0.1-0.2,0
	c0,0,0-0.1,0.1-0.1c0,0,0-0.1,0-0.1c-0.1,0-0.2,0-0.3,0.1c-0.1,0.1-0.1,0.2,0,0.3c0,0-0.1,0.1-0.1,0.1c0,0-0.1,0.1-0.1,0.1
	c0.1,0,0.1-0.1,0.2-0.1h0c0,0,0,0,0,0c0,0,0,0.1,0,0.1c0,0-0.1,0-0.1,0c-0.2,0.1-0.2,0.2-0.2,0.4c-0.1,0-0.3,0.1-0.4,0.3l-0.2,0.3
	c0,0-0.1-0.1-0.2-0.2v0c0,0,0,0.1-0.1,0.2c-0.1,0.1-0.1,0.1,0,0.2c0,0-0.1,0.1-0.2,0c-0.1,0-0.1-0.1-0.1-0.1
	c-0.1,0.2-0.1,0.3-0.1,0.4c0,0.1,0,0.2-0.1,0.3c0,0-0.1,0.1-0.1,0.1c0,0.1,0,0.1-0.1,0.1c-0.1,0.1-0.2,0.3-0.4,0.5
	c-0.2,0.2-0.3,0.4-0.4,0.5c0,0.1-0.2,0.2-0.4,0.5l-0.4,0.4c-0.1,0.1,0,0.1,0.1,0.1c0,0-0.1,0-0.2,0.1c-0.1,0-0.1,0.1-0.1,0.1v0.1
	c0,0.1,0,0.2-0.1,0.4c-0.1,0.2-0.1,0.3-0.1,0.4h0c-0.1,0-0.1,0-0.2,0.1c0,0.1-0.1,0.1-0.1,0.1c0,0,0.1,0,0.1,0c0,0,0.1,0,0.1,0
	s0,0,0,0v0c0,0-0.1,0.2-0.2,0.3c-0.1,0.2-0.2,0.3-0.3,0.4c0,0-0.1,0.1-0.2,0.2s-0.2,0.2-0.3,0.2c0,0-0.1,0-0.1,0.1
	c0,0.1,0,0.1,0,0.1c-0.2,0.3-0.4,0.6-0.5,0.9c0,0.2-0.2,0.3-0.3,0.5c0,0,0,0,0.1,0.1c0,0,0,0,0,0.1c0,0-0.1,0-0.1,0c0,0,0-0.1,0-0.1
	c-0.1,0.1-0.1,0.2-0.2,0.3s-0.1,0.2-0.2,0.3c0,0,0,0.1,0,0.2c-0.1,0.2-0.2,0.3-0.3,0.4c0,0.1-0.1,0.2-0.1,0.2h0l-0.1,0.1L56,41.6
	c-0.2-0.1-0.4-0.2-0.4-0.4c0-0.1-0.1-0.2-0.1-0.2c-0.4,0-0.7-0.1-0.9-0.3c-0.1-0.1-0.2-0.1-0.4-0.2c-0.2-0.1-0.3-0.2-0.4-0.3
	c-0.1-0.1-0.3-0.2-0.4-0.3s-0.3-0.3-0.4-0.4c-0.1-0.1-0.2-0.2-0.4-0.4c-0.1-0.1-0.3-0.2-0.3-0.3c-0.1-0.1-0.2-0.3-0.2-0.7
	c0,0,0-0.1,0.1-0.1c0,0,0.1,0,0.1,0c-0.1-0.2-0.1-0.4-0.1-0.6v-0.4c0-0.1,0.1-0.3,0.2-0.6c0-0.1,0.1-0.3,0.1-0.4
	c0-0.2,0.1-0.3,0.1-0.4c0,0,0-0.1-0.1-0.1c-0.1,0-0.1,0-0.1,0c0.1,0,0.1-0.1,0.1-0.2v-0.2c0-0.1,0-0.2,0.1-0.3
	c0-0.2,0.1-0.3,0.2-0.4c0,0,0-0.1,0-0.1c0-0.1,0-0.1,0-0.2c0,0,0,0,0.1,0.1c0,0,0,0.1,0,0.1c0-0.1,0.1-0.2,0.1-0.3
	C53,34,53,34,53,34l0-0.1c0-0.1,0-0.1,0.1-0.2c0.1,0,0.1-0.1,0.2-0.1c0,0,0-0.1,0-0.1c0,0,0-0.1,0-0.1c0.1-0.1,0.1-0.2,0.2-0.4
	c-0.1,0.1-0.1,0.1-0.2,0.2c-0.3,0.2-0.4,0.3-0.6,0.5c0,0-0.1,0.1-0.2,0.2c-0.1,0.1-0.2,0.2-0.2,0.2c-0.2,0-0.3,0.1-0.3,0.1
	c0,0.1-0.1,0.2-0.1,0.4c0,0.1,0,0.1-0.1,0.1l-0.2,0.1c-0.2,0.3-0.5,0.6-0.7,0.7c-0.1,0.1-0.2,0.2-0.3,0.3c-0.1,0.2-0.2,0.2-0.4,0.3
	c0,0.1-0.1,0.3-0.2,0.3c-0.1,0.1-0.2,0.1-0.4,0.2c-0.2,0-0.3,0.1-0.4,0.1c-0.2,0-0.3,0.1-0.4,0.1c-0.2,0-0.5-0.1-0.8-0.3
	c-0.1-0.1-0.2-0.1-0.3-0.2c-0.1,0-0.2-0.1-0.3-0.1l0,0c0,0,0,0,0-0.1c-0.1-0.1-0.1-0.1-0.2,0c0,0,0-0.1-0.1-0.1
	c0-0.1-0.1-0.1-0.2-0.1c-0.3,0-0.5-0.1-0.7-0.2c-0.2-0.1-0.3-0.3-0.5-0.6h-0.1c0,0-0.1,0-0.2,0c-0.1,0-0.2,0-0.3-0.1
	c0,0-0.1-0.1-0.1-0.2c0-0.1,0-0.2,0-0.2c-0.1-0.3-0.2-0.6-0.2-0.8c0-0.1-0.1-0.2-0.2-0.3c0,0.1-0.2,0.2-0.4,0.4
	c-0.3,0.2-0.4,0.4-0.4,0.6c0,0.1,0,0.2-0.1,0.2c-0.3,0.1-0.5,0.3-0.8,0.6l-0.5,0.5l-0.6,0.6L41.1,37c-0.4,0.4-0.7,0.7-1,0.9
	c-0.1,0.1-0.2,0.2-0.3,0.2c-0.3,0.1-0.6,0.4-0.8,0.7c-0.1,0.3-0.4,0.4-0.8,0.5c-0.2,0-0.3,0.1-0.3,0.2c0,0.1-0.1,0.2-0.2,0.3
	c-0.1,0.1-0.2,0.2-0.3,0.3c0,0-0.1,0.1-0.3,0.1c-0.1-0.1-0.3-0.1-0.4,0l-0.6-0.2c0,0,0.1,0,0.1,0c-0.2-0.1-0.5-0.3-1-0.5
	c-0.5-0.3-0.9-0.5-1.2-0.5l-0.1-0.1c0,0-0.1,0-0.1-0.1c-0.4-0.3-0.8-0.7-1.1-1.2c-0.3-0.5-0.4-1-0.4-1.5c0-0.4,0.1-0.8,0.2-1.3
	c0.5-2,1.2-3.8,2-5.4c0.2-0.3,0.5-0.8,0.9-1.4l0.5-0.8c0.3-0.5,0.9-1.3,1.8-2.4c0.1-0.1,0.3-0.4,0.5-0.8c0.3-0.4,0.5-0.7,0.8-0.9
	c0.1-0.1,0.3-0.2,0.5-0.4c0.2-0.2,0.5-0.4,0.7-0.5c0.1-0.1,0.2-0.1,0.3-0.1c0.2-0.1,0.5-0.1,0.8-0.1c0.4,0,0.8,0.1,1.1,0.3
	c0.1,0,0.2,0.1,0.3,0.3c0.1,0.1,0.2,0.2,0.3,0.3c0.5-0.4,1.1-0.5,1.9-0.5c0.4,0,0.8,0.2,1.3,0.5c0.6,0.4,1,0.8,1.3,1.2
	c0.1,0.2,0.2,0.4,0.2,0.6c0,0.1,0,0.2-0.1,0.4c0,0.2-0.1,0.3-0.1,0.4c0,0.1,0,0.3,0.1,0.4c0.1-0.2,0.3-0.4,0.6-0.8
	c0-0.1,0.2-0.2,0.3-0.5c0.2-0.3,0.4-0.5,0.6-0.7c0.6-0.8,1.2-1.4,1.8-1.8c0.3,0.2,0.6,0.3,1.1,0.4c0.5,0.2,1,0.6,1.6,1.3
	c0.1,0.2,0.1,0.3,0,0.4c-0.1,0.1-0.2,0.3-0.3,0.6c-0.1,0.3-0.3,0.5-0.6,0.7c-0.7,0.4-1.4,1.1-2.3,2c0,0.1,0,0.1-0.1,0.1
	c-0.3,0.2-0.4,0.3-0.5,0.4c-0.1,0.1-0.2,0.3-0.4,0.7c0,0-0.1,0.1-0.1,0.1c-0.1,0-0.1,0.1-0.2,0.2c0.1,0.1,0.1,0.1,0.1,0.2
	c0,0.1,0,0.1,0,0.2s0,0.1-0.1,0.1l-1,1.8c-0.1,0.1-0.2,0.3-0.3,0.6c-0.1,0.3-0.2,0.5-0.3,0.6l-0.2,0.4c-0.2,0.4-0.3,0.8-0.3,1.2
	c0,0.2,0,0.4,0,0.5c0,0.1,0,0.2-0.1,0.3c-0.1,0.1-0.1,0.2,0,0.3c0.2,0,0.5-0.1,0.6-0.4c0,0,0-0.1-0.1-0.1c0,0-0.1,0-0.1,0
	c0.2,0,0.4,0,0.5-0.1c0.1,0,0.2-0.1,0.4-0.3c0.4-0.4,0.8-0.7,1.3-1c0.1-0.1,0.3-0.2,0.4-0.4c0.2-0.1,0.3-0.3,0.5-0.4
	c0.2-0.1,0.5-0.4,0.9-0.8c0.4-0.4,0.8-0.7,1.1-1.1c0.9-1,1.5-1.8,1.8-2.3c0.5-0.6,1.3-1.6,2.2-2.9c0.1-0.3,0.3-0.4,0.6-0.4h0.1
	c0.1,0,0.2,0,0.3-0.1c0.1-0.1,0.1-0.1,0.1-0.1c0-0.1,0.1-0.2,0.3-0.3h0.1c0,0,0.1,0,0.1,0c0,0,0.1-0.1,0.1-0.1
	c0.1-0.3,0.2-0.4,0.3-0.5c0.1-0.1,0.2-0.2,0.3-0.4c0.1-0.2,0.2-0.3,0.3-0.4c0.1,0,0.1-0.1,0.2-0.2c0-0.1,0.1-0.1,0.1-0.2l0.1-0.1
	L60,22c0.1-0.1,0.1-0.2,0.2-0.3c0.1-0.1,0.2-0.2,0.3-0.3c0,0,0-0.1,0.1-0.1c0-0.1,0-0.1,0.1-0.1c0.1-0.1,0.3-0.2,0.4-0.4
	c0.2-0.2,0.3-0.3,0.4-0.3c0.1,0,0.1-0.1,0.2-0.2c0,0,0.1-0.1,0.2-0.1s0.2-0.1,0.2-0.1c0-0.1,0.1-0.2,0-0.2c0,0,0.1,0.1,0.2,0.1
	c0.1,0,0.2,0.1,0.2,0.1c0,0,0.1,0,0.1,0c0,0,0.1,0,0.1,0c0,0,0,0,0,0c0,0,0-0.1,0-0.1c0.3,0,0.5,0.1,0.6,0.2
	c0.1,0.1,0.3,0.1,0.5,0.2c0.2,0.1,0.4,0.2,0.6,0.2c0.6,0.3,1,0.5,1.2,0.7l0.6,0.6c0,0,0.1,0.1,0.2,0.2c0.1,0.1,0.2,0.2,0.2,0.3
	c0,0-0.1,0-0.1,0c-0.1,0-0.1,0-0.1,0c0,0-0.1,0.1-0.1,0.2c-0.1,0.1-0.1,0.1-0.1,0.2l0,0c0,0,0,0-0.1,0c0,0,0-0.1,0-0.1
	c0,0,0,0-0.1,0c0,0,0,0,0,0.1c0,0,0,0,0,0.1v0.2c0,0.2,0,0.3-0.1,0.4c0,0-0.1-0.1,0-0.2c0-0.1,0-0.1,0-0.1c0,0,0,0-0.1,0.1
	c0,0,0,0-0.1,0c-0.1-0.1-0.1-0.1,0-0.1c0.1,0,0.1-0.1,0-0.2c0,0-0.1,0-0.1,0c0,0-0.1,0,0,0.1c0,0,0,0-0.1,0c-0.1,0-0.1,0-0.1,0.1
	c0,0,0,0.1-0.1,0.2c-0.1,0.1-0.1,0.2,0,0.3c0,0-0.1,0-0.1,0c0,0-0.1,0-0.1,0c0,0.1,0.1,0.2,0.1,0.2c0,0.1,0,0.1-0.1,0.2
	c0,0.1,0,0.1,0,0.2c0,0-0.1,0-0.1,0c0,0-0.1-0.1-0.1-0.1c-0.1,0.1-0.2,0.2-0.2,0.2l0-0.1v-0.1c0-0.1,0.1-0.2,0-0.3c0,0-0.1,0-0.3,0
	c0-0.1-0.1-0.1-0.2-0.1c0,0,0-0.1,0-0.1c0-0.1,0-0.1,0-0.2c0,0.1-0.1,0.3-0.1,0.4v-0.1c0-0.1,0-0.1-0.1-0.1c0,0-0.1,0.1-0.2,0.3
	s-0.1,0.2-0.1,0.4c0.1,0,0.2-0.1,0.1-0.3c0,0,0.1,0,0.1,0c0,0,0.1,0,0.1,0c0,0,0,0.1,0,0.2c0,0,0.1-0.1,0.1-0.1c0.1,0,0.1,0,0.1,0
	v0.1c0,0.1,0,0.2-0.1,0.3c-0.1,0.1-0.1,0.1-0.2,0.1c0,0-0.1,0-0.1,0.1c0,0-0.1,0-0.1,0c0-0.1,0-0.2,0-0.3c-0.1,0.1-0.1,0.2-0.1,0.3
	c0,0,0,0.1,0.1,0.1c0,0-0.1,0.1-0.1,0.2c0,0.1-0.1,0.2-0.3,0.2c0,0,0-0.1,0-0.1c0,0,0-0.1,0.1-0.1c0,0-0.1-0.1-0.1,0
	c0,0-0.1,0-0.1,0v-0.1c0-0.1,0-0.2,0.1-0.3c0.1-0.1,0.1-0.1,0.2-0.1v-0.2c-0.1,0-0.2,0-0.3,0c0,0.1,0,0.2,0,0.2c0,0-0.1,0.1-0.2,0.1
	c0,0,0,0-0.1,0c0,0,0,0,0,0.1c0,0,0,0,0,0.1c0,0,0,0,0,0.1c0,0,0,0,0,0c0,0,0-0.1,0-0.1c-0.1,0-0.1,0.1-0.2,0.2l-0.2,0.3
	c-0.1,0-0.1,0.1-0.1,0.2v0.2c0.2-0.1,0.2-0.2,0.2-0.3h0c0.1,0,0.1,0,0.2-0.1l0.1-0.1c0-0.1,0-0.1,0.1-0.1c0.1,0.1,0.1,0.2,0.1,0.2
	c-0.1,0-0.1,0.1-0.1,0.1c-0.2,0.1-0.3,0.2-0.3,0.3c0,0.1,0,0.2,0.1,0.3c-0.1,0-0.2,0.1-0.2,0.2c0,0.2-0.1,0.2-0.3,0.2
	c0,0,0.1-0.1,0.1-0.2c0.1-0.1,0.1-0.1,0.1-0.2l-0.1,0.1c-0.1-0.1-0.1-0.2,0.1-0.3l-0.1,0c-0.2,0-0.3,0.2-0.4,0.5c0,0,0.1,0,0.1,0
	c0,0,0.1,0,0.1-0.1c0,0,0,0.1,0,0.1c0,0.1,0,0.1,0.1,0.2c0,0,0,0,0-0.1s0-0.1,0-0.1c0,0,0,0.1,0,0.2c-0.1,0.1-0.1,0.1-0.1,0.1
	c0.1,0.1,0.1,0.1,0.1,0c0-0.1,0.1-0.1,0.1-0.1c0,0,0,0,0.1,0c0,0,0,0,0.1,0.1c-0.1,0.1-0.2,0.2-0.3,0.4c-0.1,0.1-0.2,0.2-0.3,0.4
	c0,0-0.1,0.1-0.1,0.3c0,0.1-0.1,0.1-0.1,0c-0.1,0-0.1-0.1-0.2,0c-0.1,0-0.1,0.1-0.1,0.1h-0.1c0,0-0.1,0-0.2-0.1
	c-0.1,0-0.1,0-0.2-0.1c0,0.1-0.1,0.1-0.1,0.2c0,0,0,0.1,0.1,0.1c0,0,0.1-0.1,0.1-0.1c0-0.1,0.1-0.1,0.2-0.1c0,0.1,0,0.2,0.1,0.3
	c0,0.1-0.1,0.1-0.2,0.2c-0.1,0-0.1,0.1-0.2,0.1l0-0.1c0,0,0-0.1,0.1-0.2c0.1-0.1,0.1-0.1,0.1-0.1h-0.3v0.1c0,0,0,0.1,0,0.2
	c0,0.1,0,0.2,0.1,0.2c0,0,0,0,0,0.1l-0.1,0.1l-0.1-0.1v0c0,0,0,0.1,0,0.2c0,0.1,0,0.2-0.1,0.3l0,0c0,0,0,0,0,0
	c-0.2,0.2-0.4,0.4-0.5,0.8c-0.1-0.1-0.1-0.1-0.1-0.1c0,0,0.1,0,0.1-0.1l-0.2-0.1c0,0.4-0.2,0.7-0.5,1.1l-0.3-0.1
	c0-0.1,0-0.2-0.1-0.5c0,0-0.1,0.1-0.1,0.2c0,0.1,0,0.1,0,0.1c0,0.1-0.1,0.2-0.2,0.3L59,30.1c0,0.1,0,0.2,0,0.2c0,0,0,0.1,0,0.2
	c0,0,0.1-0.1,0.2-0.1c0.1-0.1,0.2-0.1,0.2-0.1c0.1,0,0.1,0,0.2,0.1c-0.1,0-0.3,0.1-0.3,0.2l-0.1,0.1c-0.1,0.1-0.1,0.1,0,0.2
	c0,0,0,0.1,0,0.1c0,0.1,0,0.2-0.1,0.4c-0.1,0.2-0.2,0.3-0.2,0.5c0,0,0,0-0.1,0c0,0-0.1,0-0.1,0l0.1,0.1c0,0-0.1,0-0.3,0
	c0,0.1,0,0.2,0,0.3l-0.1,0c0,0,0,0-0.1,0.1c0,0,0,0.1-0.1,0.1v0c0,0,0,0,0,0c0-0.1,0.1-0.1,0.1-0.1c0,0,0-0.1-0.1-0.1
	c0,0-0.1,0-0.1-0.1c0.1,0,0.1-0.1,0.2-0.3c0-0.1,0.1-0.2,0.1-0.3c0,0,0,0-0.1,0c0,0,0,0-0.1,0c0,0-0.1-0.1-0.2-0.1s-0.1-0.1-0.1-0.3
	l-0.1,0l-0.5,1.1c0,0,0.1,0,0.1,0c0,0,0.1-0.1,0.1-0.1c0-0.1,0.1-0.1,0.2-0.1c0,0.1,0,0.2,0,0.3v0.1c0,0.2-0.1,0.2-0.3,0.2
	c0,0,0,0,0,0.1c0,0,0,0.1,0,0.1c-0.1,0.1-0.2,0.2-0.3,0.4c-0.1,0.2-0.2,0.3-0.4,0.3c0,0,0-0.1,0-0.2c0-0.1,0-0.1-0.1-0.2
	c0,0,0,0.1-0.1,0.2c0,0.1,0,0.2-0.1,0.2c0,0-0.1,0.1-0.2,0.1c0,0,0,0.1,0.1,0.2c0,0.1,0.1,0.1,0.1,0.2h0c0,0,0,0,0-0.1l0-0.1
	c0,0,0-0.1,0.1-0.1s0.1-0.1,0.1-0.2c0.1,0.1,0.1,0.2,0.2,0.2c0,0.1,0,0.1-0.1,0.2c-0.1,0.1-0.2,0.2-0.3,0.4c0,0.2-0.1,0.3-0.1,0.4
	c0,0,0,0.1-0.1,0.2c0,0.1-0.1,0.2-0.3,0.3c-0.2,0.1-0.4,0.3-0.5,0.7c-0.1,0.3-0.2,0.6-0.3,0.7c0,0-0.1,0.1-0.1,0.2
	c0,0.1,0,0.2-0.1,0.2l0,0.1c0,0,0.1,0,0.1,0h0.1c0-0.1,0.1-0.3,0.3-0.4c0.1-0.1,0.2-0.3,0.3-0.3l0.4-0.6c0.2-0.2,0.4-0.5,0.7-0.9
	c0.3-0.5,0.6-0.9,0.9-1.2c0,0,0.3-0.3,0.6-0.7c0.3-0.3,0.6-0.6,0.9-0.9c0.1-0.1,0.1-0.1,0.1-0.2c0,0,0-0.1,0-0.1c0,0,0.1,0,0.1,0.1
	c0,0,0,0,0.1,0s0,0,0-0.1c0-0.1,0-0.2,0.1-0.3c0.1-0.1,0.2-0.2,0.3-0.3c0.1-0.1,0.2-0.2,0.3-0.3c0.1-0.2,0.2-0.3,0.3-0.4
	c0.1,0,0.2-0.2,0.4-0.4c0.2-0.3,0.4-0.4,0.4-0.5c0,0,0.1-0.1,0.2-0.2c0.1-0.1,0.2-0.2,0.2-0.2c0,0,0.1-0.1,0.2-0.2
	c0.1-0.1,0.1-0.2,0.2-0.3l0.1-0.1c0,0,0.1-0.1,0.2-0.1c0,0,0,0,0.1,0c0,0,0-0.1,0-0.1c0,0,0.1-0.2,0.3-0.3c0.2-0.2,0.3-0.2,0.3-0.2
	c0.1,0,0.1,0,0.1-0.1c0,0,0-0.1,0-0.1c0,0,0.1-0.1,0.1-0.1h0.1c0,0,0.1,0,0.1,0.1c0,0.1,0,0.2,0,0.3c0,0,0,0.1-0.1,0.1
	c0,0,0,0.1-0.1,0l0.2,0.1c0,0,0-0.1,0-0.2c0-0.1,0-0.2,0-0.3v-0.1c0-0.2,0.1-0.4,0.4-0.6c0.2-0.2,0.4-0.3,0.6-0.5
	c0.3-0.2,0.5-0.4,0.6-0.6c0,0,0.1-0.1,0.2-0.1c0.1,0,0.2-0.1,0.2-0.1c0,0,0.1-0.1,0.2-0.1c0.1,0,0.2-0.1,0.2-0.2c0,0,0,0-0.1,0
	c0,0,0,0,0.1-0.1c0.1-0.1,0.3-0.2,0.5-0.4c0.2-0.2,0.4-0.3,0.5-0.4l0.4-0.4c0.2-0.2,0.3-0.3,0.5-0.4c0.3-0.2,0.4-0.4,0.5-0.5l0.1,0
	c0,0.1,0.1,0.1,0.1,0.1c0-0.1,0.1-0.1,0.1-0.1c0,0,0.1,0,0.1-0.1c0-0.1,0-0.1,0-0.1c0.1-0.1,0.2-0.2,0.4-0.3c0.1,0,0.2-0.1,0.3-0.1
	c0.1-0.1,0.2-0.1,0.3-0.2c0.1-0.1,0.2-0.3,0.3-0.3c0.1-0.1,0.2-0.1,0.3-0.1l-0.1-0.1c0.1-0.1,0.2-0.2,0.3-0.2l0,0c0,0,0,0,0.1,0
	c0-0.1,0.2-0.2,0.3-0.3c0.2,0,0.3-0.1,0.3-0.1c0,0,0.1-0.1,0.2-0.1c0.1,0,0.2,0,0.3,0.1c0.1,0.1,0.2,0.2,0.2,0.3c0,0,0.1,0,0.1,0
	c0.1,0,0.2,0.1,0.4,0.2c0.1,0.1,0.2,0.2,0.2,0.3c0,0,0.1-0.1,0.1-0.1c0,0,0.1,0,0.1,0.1c0.1,0.2,0.2,0.3,0.3,0.3c0,0,0,0,0,0v0l0,0
	c0,0,0,0,0.1,0.1c0,0,0.1,0,0.1,0c0,0,0,0,0-0.1l0.1-0.1c0,0.2,0.1,0.4,0.3,0.5c0.1,0,0.2,0.1,0.3,0.2l0.3,0.3
	c0.1,0.1,0.1,0.1,0.1,0.2c0,0.1,0,0.2-0.1,0.2c0,0.1,0.1,0.1,0.2,0.1c0.1,0,0.1-0.1,0.2-0.1c0,0,0,0,0,0.1c0,0,0,0,0,0.1v0.1
	c0,0,0,0,0,0c0,0,0.1,0.1,0.2,0.1c0.1,0,0.1,0.1,0,0.3c-0.1,0.1-0.1,0.2-0.2,0.3C75.1,25,75,25.1,75,25.1c-0.1,0-0.3,0.2-0.4,0.5
	c0,0-0.1,0.1-0.1,0.1c0,0-0.1,0-0.1,0v-0.1c0-0.1,0-0.1-0.1-0.1c-0.1,0-0.1,0.1-0.2,0.1c0,0.1-0.1,0.1-0.1,0.1c0,0,0,0.1,0,0.1
	c0,0,0.1,0,0.1,0c-0.1,0.2-0.2,0.3-0.3,0.3c0-0.1,0-0.2,0-0.4c0,0-0.1,0-0.1,0c-0.1,0-0.1,0.1,0,0.1c0,0.1,0,0.1,0,0.2
	c0,0,0,0.1,0,0.1c0,0,0,0,0.1,0c0,0,0,0,0.1,0c0,0,0,0,0,0.1c0,0,0,0,0,0c-0.1,0-0.1,0.1-0.2,0.2c-0.1,0.1-0.1,0.1-0.2,0.1
	c0,0,0-0.1,0-0.1c0,0-0.1-0.1-0.1-0.1c-0.1,0-0.1,0-0.1,0.1c0,0.1,0,0.1-0.1,0.1c-0.1,0-0.1,0-0.2-0.1h0.1c0,0,0-0.1-0.1-0.1
	c0,0,0-0.1-0.1-0.1l0,0.1l-0.1,0.1c0,0,0.1,0.1,0.2,0.1c0.1,0,0.2,0,0.3,0c0,0,0,0.1,0,0.1c0,0,0,0.1,0,0.1c0,0,0,0-0.1-0.1
	c0,0,0-0.1-0.1-0.1c0,0,0,0.1-0.1,0.1c0,0-0.1,0.1,0,0.1c0,0,0,0.1,0,0.1c0,0,0,0.1-0.1,0.1c-0.1,0-0.1,0.1-0.1,0.1
	c-0.1,0-0.1,0.1-0.2,0.3s-0.1,0.2-0.1,0.3c-0.3,0.6-0.5,0.9-0.6,1c0,0-0.1,0.1-0.3,0.1c0,0,0,0,0.1,0c0,0,0,0,0.1,0
	c0,0.1-0.1,0.2-0.2,0.3c-0.1,0.1-0.1,0.3-0.1,0.4c-0.1,0-0.1,0-0.1-0.1c-0.1,0.1-0.2,0.3-0.3,0.6c-0.1,0.3-0.3,0.5-0.5,0.7
	c-0.1,0.1-0.2,0.2-0.2,0.4c-0.1,0.2-0.1,0.3-0.1,0.3c-0.1,0.1-0.1,0.3-0.2,0.4c-0.1,0.1-0.2,0.2-0.2,0.3c0,0-0.1,0.1-0.1,0.1
	c0,0,0,0.1,0,0.1c0,0-0.1,0-0.2,0c-0.1,0-0.1,0-0.1,0l0,0.1c0,0,0,0.1-0.1,0.1c-0.1,0-0.1,0.1-0.1,0.1c0,0,0.1,0,0.1,0
	c0,0,0-0.1,0.1-0.1c0,0,0,0.1,0,0.1c0,0-0.1,0.1-0.1,0.1c0.1,0,0.1,0.1,0.1,0.1c0,0,0,0.1-0.1,0.1l0,0.1c0,0.2-0.2,0.4-0.3,0.6
	c-0.2,0.2-0.3,0.4-0.4,0.6c0,0-0.1,0.1-0.1,0.2c-0.1,0.1-0.1,0.2-0.3,0.2c-0.1,0-0.2,0.1-0.2,0.3c0,0.1-0.1,0.2-0.1,0.3
	c-0.1,0-0.1-0.1-0.1-0.2c0,0-0.1,0-0.1,0c-0.1,0.1-0.1,0.2-0.1,0.3c0,0,0.1,0.1,0.1,0.2c0,0,0,0.1-0.1,0.3c0,0.1-0.1,0.2-0.1,0.3
	c0,0.1,0,0.2-0.1,0.3l0.6-0.8c0.1-0.3,0.3-0.5,0.5-0.7c0,0,0.2-0.3,0.5-0.7l0.7-0.9c0.1-0.2,0.3-0.3,0.4-0.5
	c0.2-0.2,0.3-0.4,0.4-0.5c0.3-0.4,0.8-1,1.4-1.8c0.3-0.3,0.6-0.6,0.9-1l0.9-1l1.4-1.5c0.1-0.1,0.3-0.4,0.6-0.6
	c0.3-0.3,0.5-0.5,0.7-0.7c0.1-0.1,0.3-0.2,0.4-0.4c0.2-0.2,0.3-0.3,0.5-0.4c0.1-0.2,0.3-0.4,0.6-0.6c0.3-0.2,0.5-0.3,0.6-0.4
	l0.3-0.3c0.1-0.1,0.2-0.2,0.3-0.2c0,0,0.1,0,0.2,0c0.1,0,0.2,0,0.3-0.1l0-0.1c0,0-0.1-0.1-0.1-0.1c0,0,0.1-0.1,0.1-0.1
	c0,0,0-0.1,0.1-0.1c0,0,0.1,0,0.1,0.1s0,0.1,0,0.1c0,0,0.1-0.1,0.1-0.2c0,0,0-0.1,0.1-0.1c0.1,0,0.1,0,0.1-0.1
	c0-0.1,0.2-0.3,0.5-0.5c0.1-0.1,0.3-0.3,0.4-0.4c0.2-0.1,0.3-0.2,0.4-0.3l0.2-0.1c0,0,0.1,0.1,0.3,0.2c0,0,0.1,0.1,0.1,0.1
	c0.1,0,0.1,0.1,0.1,0.1c0,0,0.1,0,0.1-0.1s0.1-0.1,0.1-0.1v0c0,0.1,0,0.1,0.1,0.2c0.1,0.1,0.2,0.1,0.2,0.2c0,0,0-0.1,0-0.1
	c0,0,0.1,0,0.1,0c0.1,0.1,0.2,0.2,0.3,0.3c0.1,0.1,0.2,0.1,0.3,0.2c0.2,0.2,0.3,0.3,0.3,0.3c0,0.1,0.1,0.1,0.2,0.2
	c0.1,0.1,0.2,0.2,0.2,0.2c0,0.1,0.1,0.1,0.1,0.2c0,0.1,0.1,0.2,0.1,0.3c0,0.2,0,0.4-0.2,0.6c-0.2,0.2-0.3,0.4-0.5,0.4
	c0,0-0.1,0.1-0.1,0.1c0,0,0,0.1-0.1,0.1c0,0-0.1,0.1-0.6,0.5c-0.2,0.2-0.4,0.4-0.6,0.5c-0.2,0.1-0.3,0.2-0.3,0.4c0,0,0,0.1-0.1,0.1
	c0,0,0,0-0.1,0c-0.1,0-0.2,0.1-0.3,0.2c-0.1,0.1-0.1,0.2-0.1,0.3l-0.1,0.1c0,0,0,0,0,0.1c-0.1,0-0.1,0.1-0.2,0.3
	c-0.1,0.1-0.2,0.2-0.3,0.3c0,0,0,0.1,0,0.1c0,0.1,0,0.1,0,0.1c0,0,0,0.1,0,0.1c0,0-0.1,0.1-0.1,0.1l-0.5,0.5c0,0,0-0.1,0-0.1
	c0,0,0-0.1-0.1-0.1c-0.1,0-0.1,0-0.1,0c-0.4,0.7-0.7,1.2-0.9,1.5c-0.1,0.1-0.1,0.3-0.2,0.5c-0.1,0.2-0.2,0.4-0.2,0.5
	c0,0,0,0.1,0,0.1c0,0,0,0.1,0.1,0.1c0,0.1,0,0.2-0.1,0.3c0,0.2-0.1,0.2-0.1,0.3l-0.1,0c0,0-0.1,0-0.1,0c0.1-0.2,0.2-0.4,0.2-0.5
	c-0.1,0.1-0.2,0.3-0.2,0.5h0c-0.1,0-0.2,0.1-0.2,0.3c-0.1,0.2-0.3,0.6-0.5,1.1c0,0,0,0.1-0.1,0.1c0,0.1,0,0.1,0,0.2c0,0,0,0.1,0,0.1
	c0,0.1-0.1,0.1-0.2,0.1c0,0,0,0-0.1,0l0,0V34c0,0.1,0,0.2,0,0.3c0,0.1,0,0.2,0,0.3c0,0,0,0.1,0.1,0.1h0.1c-0.1,0.1-0.2,0.1-0.2,0.2
	c0,0.1,0,0.2,0,0.4c0,0.2,0,0.3,0,0.3h0.1c0.2,0,0.4-0.1,0.6-0.2c0.2-0.1,0.7-0.5,1.4-1c0.3-0.2,0.5-0.4,0.8-0.7l0.8-0.6
	c0.1-0.1,0.3-0.3,0.8-0.7c0.4-0.3,1.1-1.1,2.4-2.3c0.8-0.9,1.2-1.3,1.2-1.3c0.1-0.1,0.2-0.3,0.4-0.6c0-0.1,0.1-0.2,0.2-0.3
	c0.1-0.1,0.2-0.3,0.3-0.4l0.4-0.8c0.5-0.8,0.9-1.4,1.3-2l0.1-0.1c0,0.1,0.1,0.1,0.1,0c0,0,0,0.1,0.1,0.2c0.1,0.1,0.1,0.1,0.1,0.2
	l0,0.1c0,0,0.1,0,0.1,0c0,0,0,0,0,0c0.6-0.7,1-1.3,1.4-1.7c0,0,0.1,0,0.1,0c0,0,0.1,0,0.1,0c0.1,0.1,0.3,0.2,0.5,0.4
	c0.2,0.1,0.4,0.2,0.5,0.3c0.4,0.3,0.6,0.5,0.7,0.6c0.1,0.2,0.3,0.4,0.6,0.5c0.1,0,0.2,0.1,0.3,0.1c0,0,0,0.1,0,0.3
	c0,0.7-0.3,1.2-0.9,1.5c0,0-0.1,0.1-0.1,0.2c-0.1,0.2-0.1,0.4-0.2,0.5c-0.1,0.1-0.2,0.2-0.4,0.3c0,0-0.1,0.1-0.2,0.2
	c-0.1,0.1-0.1,0.2-0.2,0.2c-0.2,0.2-0.4,0.4-0.6,0.7c-0.2,0.3-0.3,0.5-0.4,0.6c-0.1,0.1-0.1,0.2-0.1,0.3c0,0-0.1,0-0.1,0
	c0,0-0.1,0-0.1,0.1c0,0-0.1,0.1-0.1,0.1c-0.1,0-0.2,0.1-0.2,0.1c0,0.1-0.1,0.1-0.1,0.2c0,0.2-0.1,0.5-0.3,0.8
	c-0.2,0.3-0.3,0.6-0.3,0.8c-0.2,0.4-0.4,0.6-0.7,0.8h0c-0.2,0-0.3,0.2-0.3,0.5c0,0.2-0.1,0.4-0.2,0.6c-0.1,0.2-0.2,0.3-0.3,0.4
	c-0.1,0.2-0.2,0.3-0.3,0.5c-0.1,0.4-0.3,1.1-0.7,2.1l0,0.3c0.4-0.1,0.8-0.3,1-0.5c0.8-0.5,1.9-1.5,3.4-2.8l0.6-0.5
	c0.2-0.2,0.7-0.7,1.6-1.6l1-1c0.2-0.2,0.4-0.4,0.5-0.6c0.1-0.2,0.1-0.3,0.2-0.5c0.1-0.3,0.2-0.5,0.3-0.6c0,0,0.2-0.3,0.4-0.7
	c0.2-0.4,0.4-0.7,0.5-0.8c0.1-0.2,0.3-0.4,0.4-0.7s0.3-0.5,0.4-0.7l0.1-0.1c0,0,0,0,0.1-0.1c0,0,0.1,0,0.1-0.1c0,0,0-0.1,0-0.1v0
	c0-0.1,0-0.1,0.1-0.2c0.1,0,0.1-0.1,0.1-0.1c0.1-0.1,0.2-0.2,0.3-0.3c0.1-0.1,0.2-0.3,0.3-0.4c0,0.1,0,0.2,0,0.3
	c0.1,0,0.2-0.1,0.1-0.2c0,0-0.1-0.1-0.1-0.2c0-0.1,0-0.2,0.1-0.3c0.3-0.4,0.6-0.7,0.9-0.9c0.1,0,0.1-0.1,0.2-0.2
	c0-0.1,0.1-0.1,0.1-0.2c0.8,0.2,1.6,0.6,2.4,1.2c0-0.1,0.1-0.2,0.2-0.3c0.1-0.1,0.2-0.2,0.2-0.2c0-0.2,0.1-0.3,0.3-0.5
	c0.2-0.2,0.3-0.3,0.3-0.3c0.1-0.3,0.3-0.5,0.5-0.7l0.1-0.1c0,0,0.1-0.1,0.2,0l0.1,0c0-0.2,0.2-0.3,0.4-0.4c0.1,0,0.1-0.1,0.1-0.3
	c0-0.2,0.1-0.3,0.1-0.3c0,0,0.1,0,0.3,0.1c0.1,0,0.3,0.1,0.5,0.2c0.2,0.1,0.4,0.2,0.6,0.3c0.1,0.1,0.3,0.2,0.6,0.3
	c0.2,0.1,0.4,0.3,0.6,0.4c0,0,0,0,0.1,0c0,0,0,0,0,0c0.1,0.2,0.3,0.5,0.7,0.7l1.2,0.8c0.5,0.3,0.8,0.7,1.1,1.3c0,0,0,0.1,0,0.1
	c0,0,0,0.1,0,0.1c0,0.1,0,0.2-0.1,0.4c-0.1,0.2-0.1,0.3-0.1,0.4c-0.2,0.1-0.3,0.3-0.4,0.6c-0.1,0.3-0.2,0.5-0.3,0.6
	c-0.1,0.1-0.2,0.2-0.2,0.2c0,0-0.1,0.1-0.2,0.2c0,0.1-0.1,0.2-0.3,0.2c0,0,0.1,0.1,0.1,0.2c0,0.1,0,0.2-0.1,0.3
	c0.3-0.1,0.6-0.3,0.9-0.6c0,0-0.1,0-0.1-0.1c0-0.1,0-0.1,0.1-0.1c0,0,0.1,0,0.1,0.1v0.1l0.4-0.3c0.5-0.4,0.8-0.7,1.1-0.8
	c0.2-0.1,0.5-0.4,0.9-0.7l0.6-0.5c0.2-0.2,0.6-0.4,1-0.8l0.6-0.5l0.3-0.2c0,0,0,0,0.1,0c0,0,0.1,0,0.1,0.1c0.1,0,0.1,0,0.2,0
	c0,0,0.1,0,0.1,0.1c0,0,0,0.1,0,0.1c0,0,0.1,0,0.2,0.1c0.1,0,0.1,0.1,0.1,0.2c0,0,0.1,0,0.2-0.1c0.1,0,0.1,0,0.1,0.1v0.1
	c0,0.1,0,0.1,0.1,0.2c0,0,0.1,0,0.1,0c0,0,0.1,0,0.1,0c0,0,0,0.1-0.1,0.1C114.8,25.1,114.8,25.2,114.9,25.2z M77.9,25l0.3-0.3
	c-0.1,0-0.2,0-0.3,0V25z M74.2,25.3C74.2,25.4,74.2,25.4,74.2,25.3l0.2,0.1c0.1,0,0.2-0.1,0.2-0.3h0c0,0-0.1,0-0.2,0.1
	C74.3,25.2,74.3,25.3,74.2,25.3C74.2,25.3,74.2,25.3,74.2,25.3z M71.2,29.6c0-0.1,0-0.2,0.1-0.2c0.1,0,0.1,0,0.1,0c0,0-0.1,0,0-0.1
	c0-0.1,0-0.1,0-0.1c0,0,0,0.1-0.1,0.1C71.1,29.4,71.1,29.5,71.2,29.6z M70.3,22.9c0,0,0,0.1,0,0.1c0,0,0.1,0.1,0.2,0.1v-0.1
	c0,0,0-0.1,0.1-0.1c0,0,0-0.1,0-0.2c0,0.1-0.1,0.1-0.1,0.1C70.3,22.9,70.3,22.9,70.3,22.9z M61.4,27c0-0.1,0.1-0.1,0.1-0.2
	c0-0.1,0-0.2,0-0.2c0,0,0.1,0,0.1,0c0,0,0.1,0,0.1,0c0,0,0,0.1,0,0.2c0,0.1,0,0.2,0,0.2c0,0,0.1,0,0.2,0c0.1,0,0.1,0,0.1-0.1
	c0,0,0-0.1,0-0.1l-0.1,0c-0.1,0-0.1,0.1-0.1,0c0,0,0-0.1,0-0.1c0.1,0,0.1,0,0.1-0.1s0-0.1,0.1-0.2c-0.1,0-0.1,0-0.2,0
	c0,0-0.1,0.1-0.1,0.1v-0.1c0,0,0-0.1,0-0.1c0.2-0.1,0.2-0.3,0.1-0.5c-0.1,0-0.1,0.1-0.2,0.2c-0.1,0.1-0.1,0.2-0.2,0.2v0.1
	c0,0.1,0,0.2-0.1,0.3C61.3,26.8,61.4,26.9,61.4,27z M60.7,28.1c0,0.1,0.1,0.2,0.1,0.2c0.1-0.2,0.1-0.3,0.1-0.4
	C60.7,28,60.7,28,60.7,28.1z M59.8,29.1c0,0.2,0,0.3,0,0.4c0.1-0.1,0.2-0.2,0.2-0.3C60,29.2,59.9,29.2,59.8,29.1
	C59.8,29.1,59.8,29.1,59.8,29.1c0-0.1,0-0.1-0.1-0.1C59.7,29.1,59.7,29.1,59.8,29.1z M44.8,29.7c-0.3,0.1-0.5,0.4-0.6,0.9
	C44.3,30.4,44.5,30.2,44.8,29.7z M45.4,24.5c-0.1,0-0.2,0-0.2,0.1c-0.1,0.3-0.3,0.3-0.5,0.2c-0.3-0.1-0.4-0.3-0.5-0.5
	c0-0.1-0.1-0.1-0.1-0.2c-0.1,0-0.1,0-0.2,0h-0.1c0,0-0.1,0-0.1-0.1c0-0.1-0.1-0.1-0.1-0.1c-0.2,0-0.4,0.1-0.6,0.3
	c-0.2,0.1-0.4,0.3-0.5,0.3c-0.1,0.1-0.2,0.2-0.3,0.4c-0.1,0.2-0.2,0.3-0.3,0.5c0.1-0.1,0.3-0.2,0.4-0.4c0.2-0.2,0.3-0.3,0.4-0.4
	c0.3-0.2,0.5-0.3,0.6-0.3v0.1c-0.1,0-0.2,0.1-0.3,0.3S43,25,42.9,25.1c-0.6,0.5-1,1-1.3,1.4c-0.1,0.2-0.3,0.4-0.5,0.6
	c-0.3,0.4-0.6,0.7-0.7,0.9c-0.1,0.1-0.2,0.3-0.3,0.5c-0.1,0.2-0.3,0.4-0.4,0.6c-0.6,0.8-1,1.4-1.2,1.7C38.3,31,38.2,31,38.1,31
	c0,0-0.1-0.1-0.3-0.2c0-0.1,0-0.2,0.1-0.3c0.1-0.1,0.1-0.2,0.1-0.2c-0.3,0-0.5,0.2-0.4,0.4c0,0.1,0,0.3-0.1,0.5
	c-0.1,0.1-0.2,0.2-0.2,0.3c0,0.1-0.1,0.2-0.1,0.2c0,0,0.1,0,0.1,0c0.1,0,0.1,0,0.2,0.1c-0.1,0.3-0.2,0.5-0.3,0.6
	c-0.1,0.1-0.3,0.2-0.5,0.2c0,0.2,0,0.3-0.1,0.4s-0.1,0.2-0.1,0.3c0,0,0.1,0.1,0.2,0.1c0.1,0,0.2,0,0.2,0.1c-0.4,0.6-0.7,1.5-0.9,2.6
	c0.1,0,0.2-0.1,0.2-0.3c0-0.1,0.1-0.2,0.2-0.3c0,0.1,0,0.3-0.1,0.5c0,0.2,0,0.4-0.1,0.6c0,0.2-0.1,0.3-0.2,0.4c0-0.1,0-0.2,0-0.3
	c0-0.1,0-0.3,0-0.4c0,0.1-0.1,0.3-0.2,0.5c-0.1,0.2-0.1,0.4-0.1,0.5c0.1,0,0.2-0.1,0.4-0.1c0.1,0,0.3-0.1,0.3-0.2
	c0.5-0.3,1-0.7,1.6-1.4l2.7-2.7c0.2-0.2,0.4-0.4,0.6-0.7c0.2-0.3,0.4-0.5,0.5-0.6l0.5-0.7l-0.4-0.3c-0.1-0.1-0.2-0.2-0.2-0.3
	c0-0.1,0.1-0.2,0.2-0.3c0.1-0.1,0.3-0.3,0.4-0.5c1.3-1.7,2.2-3,2.7-4c0-0.1,0.1-0.3,0.3-0.5C45.4,25.1,45.4,24.8,45.4,24.5z
	 M46.2,34.6C46.2,34.5,46.2,34.5,46.2,34.6L46.2,34.6c-0.1-0.1-0.1-0.1-0.1,0v0C46.1,34.6,46.1,34.6,46.2,34.6
	C46.2,34.7,46.2,34.7,46.2,34.6z M46.9,23.7c0-0.1-0.1-0.1-0.3-0.1c-0.1,0-0.1,0-0.1,0.1c0,0,0.1,0.1,0.1,0.1c0.1,0,0.1,0.1,0.2,0.1
	L46.9,23.7z M49.9,34.6C49.9,34.6,49.9,34.6,49.9,34.6c-0.1,0.1-0.1,0.1-0.1,0.2C49.8,34.8,49.9,34.8,49.9,34.6
	C49.9,34.7,49.9,34.7,49.9,34.6z M53,34.3c-0.1,0.1-0.2,0.3-0.1,0.4c0,0,0,0,0,0.1c0,0,0,0,0,0.1l0-0.1C53.1,34.6,53.1,34.4,53,34.3
	z M57.5,32.5c-0.2,0.1-0.3,0.3-0.3,0.5c0,0,0.1,0,0.2,0s0.2,0,0.2-0.1v-0.1C57.7,32.7,57.6,32.6,57.5,32.5z M58.8,31.3
	c0,0-0.1-0.1-0.2-0.1c0,0-0.1,0-0.1,0.1c0,0.1,0,0.1,0,0.2c0,0,0.1,0,0.2,0C58.8,31.5,58.8,31.4,58.8,31.3z M59,30.8
	c0-0.1,0-0.1-0.1-0.2c0-0.1-0.1-0.1-0.1-0.2c-0.1,0.1-0.1,0.1-0.1,0.2C58.7,30.7,58.8,30.8,59,30.8L59,30.8z M54.6,31.6h-0.2
	c0,0-0.1,0.1-0.1,0.1c0,0,0,0.1,0,0.1c0,0,0,0.1,0.1,0.1c0,0,0.1-0.1,0.1-0.2C54.5,31.7,54.5,31.6,54.6,31.6z M59,34.8
	c0-0.1,0-0.2,0-0.2c-0.1,0-0.2,0-0.3,0.1c0.1,0,0.1,0.1,0.1,0.2c0,0.1,0,0.1,0,0.2C58.9,35,59,34.9,59,34.8z M59.1,34.2
	c0-0.1,0-0.2-0.1-0.3c0,0.1,0,0.2,0,0.3C59,34.1,59.1,34.2,59.1,34.2z M59.5,34c-0.1-0.1-0.1-0.2-0.1-0.3c0,0,0-0.1,0-0.2
	c0-0.1,0-0.2-0.1-0.2c-0.1,0-0.1,0.1-0.1,0.2v0.2c0,0-0.1,0-0.1,0c0.1,0,0.1,0,0.2,0.1C59.4,33.9,59.5,34,59.5,34z M59.9,33.9
	c0-0.1,0-0.1-0.1-0.2c0,0.1-0.1,0.2-0.1,0.3c0,0,0.1,0.1,0.1,0.1C59.9,34,59.9,34,59.9,33.9z M60.2,34.9l-0.2,0.3l0.1,0.1
	C60.3,35.1,60.3,35,60.2,34.9z M61.1,33.8c0.1-0.1,0.1-0.2,0-0.2C61.1,33.6,61.1,33.7,61.1,33.8C61,33.8,61,33.8,61.1,33.8
	c0,0.1,0,0.1,0,0.2c0,0.1-0.1,0.1-0.1,0.1c0,0,0,0.1,0.1,0.1l0.1,0v0c0,0,0-0.1,0-0.1C61.2,33.9,61.2,33.9,61.1,33.8z M61.8,30.9
	c0,0,0-0.1,0.1-0.2s0.1-0.2,0-0.3c-0.1,0-0.2,0.1-0.2,0.3V31c0,0.1,0.1,0.1,0.3,0.1C61.9,31,61.8,31,61.8,30.9z M63.5,29.1
	c0,0,0-0.1-0.1-0.1c-0.1,0-0.2,0-0.2,0.1l0.3,0.1C63.5,29.2,63.5,29.2,63.5,29.1z M64.1,30.2c-0.1,0-0.1,0-0.2,0.1
	c0,0.1-0.1,0.1-0.1,0.1c0,0,0.1,0,0.1,0c0,0,0.1,0,0.1,0.1C64.2,30.4,64.2,30.3,64.1,30.2z M64.8,27.8c0-0.1,0-0.1,0-0.1
	c0,0,0,0.1-0.1,0.1c-0.1,0-0.1,0.1,0,0.1c0,0-0.1,0-0.1,0c0,0-0.1,0-0.1,0c0.1,0.1,0.2,0.1,0.3,0C64.8,27.9,64.8,27.9,64.8,27.8z
	 M70,30.4L70,30.4C69.9,30.4,69.9,30.4,70,30.4c-0.1,0-0.1,0.1-0.2,0.1c-0.1,0-0.1,0.1-0.2,0.1c0,0,0,0.1,0,0.1c0,0.1,0,0.1,0,0.1
	c-0.1,0-0.2,0.1-0.1,0.3h0.1C69.7,31,69.8,30.7,70,30.4z M69.5,25.5c0-0.1,0-0.2,0.1-0.4c0.1-0.2,0.1-0.3,0.1-0.4
	c-0.1,0-0.2,0.1-0.3,0.3c0,0.1-0.1,0.2-0.1,0.3C69.4,25.3,69.5,25.4,69.5,25.5z M70.1,30.2c-0.1,0-0.2,0-0.1,0.1h0L70.1,30.2z
	 M69,23.9C69,24,69.1,24,69.1,24c0,0,0.1,0,0.1-0.1c0,0,0,0,0.1-0.1c0,0,0,0,0,0V24c0,0,0,0.1,0.1,0.1c0,0,0.1,0.1,0.1,0.1
	c0.1-0.2,0.2-0.2,0.4-0.1c0,0,0,0,0,0c0,0,0,0,0.1,0c0,0,0,0,0,0c0,0,0-0.1,0-0.1c0,0,0-0.1,0-0.1c0-0.1,0-0.1-0.1-0.1
	c-0.1,0-0.2,0-0.1-0.1c0,0,0.1,0,0.1,0s0.1,0,0.2,0c0,0-0.1-0.1-0.1-0.1c0,0,0-0.1,0-0.1h-0.3c-0.1,0-0.2,0-0.2,0c0,0,0,0.1-0.1,0.2
	c-0.2,0-0.3,0.1-0.3,0.3c0,0-0.1,0-0.1-0.1C69.1,23.8,69,23.8,69,23.9z M68.8,24.4c0,0,0,0.1,0.1,0.2c0.1,0.1,0,0.2-0.1,0.3
	c0,0,0,0,0.1,0.1c0,0.1,0.1,0.1,0.1,0.1c0,0,0-0.1,0-0.1c0-0.1,0-0.1,0.1-0.1c0,0,0,0.1,0.1,0.1c0,0.1,0,0.1,0.1,0.1
	c0,0,0-0.1,0.1-0.3c0-0.1,0.1-0.3,0.2-0.3h-0.1l0-0.1v-0.1l-0.1,0.1c0,0,0,0.1,0,0.2c0,0.1,0,0.1-0.1,0.1v0c0,0,0,0,0,0
	c0-0.1,0-0.2-0.1-0.3c0,0,0.1,0,0.1,0c0,0,0.1,0,0.1-0.1c-0.1,0-0.1,0-0.1-0.1c-0.1,0-0.2,0-0.2,0.1C68.8,24.2,68.8,24.3,68.8,24.4z
	 M68.7,25.5l0.1,0l-0.1-0.1c0.1,0,0.2-0.1,0.3-0.2c-0.1,0-0.2,0.1-0.3,0.1C68.7,25.3,68.7,25.4,68.7,25.5z M68.4,32.7
	C68.4,32.7,68.4,32.7,68.4,32.7c-0.1,0-0.1,0-0.1,0c0,0-0.1,0.1-0.1,0.3c0,0.2,0,0.3,0,0.3c0,0,0-0.1,0.1-0.2c0-0.1,0.1-0.1,0.2,0
	c0,0,0.1-0.1,0-0.2c0-0.1,0-0.1,0-0.1l0.7-1.2c0,0,0.1-0.1,0.1-0.1l-0.1,0c0,0-0.1,0-0.1,0.1l0,0.1c0,0-0.1,0-0.1,0.1l-0.4,0.7
	c0,0-0.1,0.1-0.2,0.1C68.4,32.6,68.4,32.6,68.4,32.7z M68.2,25.3L68.2,25.3c0-0.1,0-0.2,0.1-0.2c0.1,0,0.1-0.1,0-0.2
	C68.1,24.9,68.1,25.1,68.2,25.3z M67.1,25.7C67.1,25.8,67.1,25.8,67.1,25.7L67.1,25.7c0.3,0.1,0.4,0,0.4-0.2h-0.1c0,0-0.1,0-0.2,0
	C67.2,25.5,67.1,25.6,67.1,25.7C67.1,25.7,67.1,25.7,67.1,25.7z M66.8,26.5c0-0.1,0-0.2-0.1-0.4c0,0-0.1,0.2-0.2,0.3
	c-0.1,0.2-0.1,0.4-0.1,0.6c0.1-0.1,0.2-0.2,0.2-0.3s0.1-0.2,0-0.3C66.8,26.5,66.8,26.5,66.8,26.5z M67.2,26L67.2,26
	c-0.1,0-0.2,0-0.2,0.1s-0.1,0.1-0.2,0.1c0,0.1,0.1,0.1,0.1,0.2c0,0,0.1,0,0.2,0v-0.1c0,0,0-0.1,0-0.1C67.2,26.1,67.2,26.1,67.2,26z
	 M67.9,26.2v0.2c0,0.1,0,0.1-0.1,0.2c-0.2,0.1-0.2,0.2-0.1,0.4c0,0,0.1-0.1,0.1-0.2c0-0.1,0.1-0.1,0.2-0.1c0,0,0.1,0,0.1-0.1
	c0.1,0,0.1-0.1,0.1-0.1c0-0.1,0-0.1,0-0.2c0.1,0,0.1,0,0.1,0c-0.1-0.1-0.1-0.1-0.1-0.2c0-0.1,0.1-0.1,0.1-0.1c-0.1,0-0.2,0-0.3,0.1
	C68,26.1,68,26.2,67.9,26.2c0-0.2,0.1-0.3,0.2-0.3c0.1-0.1,0.1-0.2,0.1-0.3c0-0.1-0.1-0.2-0.2-0.3c0,0,0,0.1,0,0.2
	c0,0.1,0,0.1,0,0.2l-0.3-0.1l0.1-0.3c0,0-0.1,0-0.1,0c0,0-0.1,0-0.2,0c0.1,0,0.1,0.1,0.1,0.2c0,0.1,0,0.1,0.1,0.1
	c0,0.2,0,0.3-0.1,0.4c-0.2-0.1-0.3-0.1-0.3,0.1c0,0,0,0.1,0,0.2c0,0.1,0,0.1,0,0.2c0,0,0,0,0.1,0.1C67.3,26.3,67.5,26.2,67.9,26.2z
	 M67.3,28.1l0.2-0.5c0,0-0.1,0-0.1,0c-0.1,0-0.1,0-0.1,0.1c0,0.1-0.1,0.1,0,0.2C67.3,28,67.3,28.1,67.3,28.1z M73.3,31.5
	c-0.1,0-0.1,0-0.2,0c0,0-0.1,0.1-0.1,0.1C73.2,31.7,73.2,31.7,73.3,31.5z M74,29.1C74,29.1,74,29,74,29.1c-0.1-0.1-0.2-0.1-0.2-0.2
	c0,0-0.1,0.1-0.2,0.3c-0.1,0.1-0.2,0.2-0.3,0.2c0.1,0.1,0.2,0.1,0.3,0c0,0,0.1-0.1,0.1-0.2C73.7,29.1,73.8,29.1,74,29.1z M74.6,28.2
	c-0.1,0-0.2,0-0.3,0c0,0-0.1,0.1,0,0.1c0,0.1,0.1,0.1,0.1,0.1L74.6,28.2z M75,28.5c0-0.1-0.1-0.2-0.2-0.3c0,0.1,0,0.1,0.1,0.2
	c0,0.1,0,0.2,0.1,0.3C75,28.6,75,28.5,75,28.5z M75.2,27.7c-0.1,0.1-0.2,0.1-0.2,0.2c0,0.1,0,0.1,0,0.3C75.2,28,75.2,27.9,75.2,27.7
	z M76.3,26.4c0,0.1-0.1,0.1-0.2,0.1c-0.1,0-0.1,0-0.1,0c0,0.1,0,0.2-0.1,0.2c-0.1,0-0.1,0.1-0.1,0.2V27c0,0,0,0,0.1,0.1
	c0,0,0.1,0,0.1,0l0.1-0.1L76.3,26.4z M76.7,26.2l-0.3,0.2c0,0,0.1,0.1,0.1,0.2c0,0.1,0,0.1,0.1,0.2L76.7,26.2z M87.1,26.4
	c0,0,0,0.1-0.1,0.2c0.1-0.1,0.1-0.2,0.2-0.2C87.2,26.4,87.2,26.4,87.1,26.4C87.1,26.3,87.1,26.4,87.1,26.4z M86,38
	c-0.1,0-0.2,0-0.3,0c-0.2,0-0.3,0-0.3,0c0,0,0,0.1,0,0.1c0,0.1-0.1,0.2-0.2,0.3C85.5,38.4,85.7,38.3,86,38z M90.1,34.8
	c-0.5,0.2-0.8,0.5-0.9,0.8c0.2,0,0.3-0.2,0.5-0.4C89.9,35,90,34.9,90.1,34.8z M92.5,34.7c-0.2,0-0.3,0-0.3,0.1c0,0,0,0.1,0,0.2
	c0.1,0,0.1-0.1,0.2-0.1C92.5,34.8,92.5,34.8,92.5,34.7z M94,33.5c0.1-0.1,0.2-0.2,0.3-0.3c0.1-0.3,0.1-0.5,0.2-0.7c0,0,0,0,0,0
	c-0.1,0.1-0.2,0.2-0.3,0.2C94.1,33,94.1,33.3,94,33.5z M96,28.2L96,28.2L96,28.2l0-0.1L96,28.2L96,28.2z M95.2,28.6c0,0,0,0.1,0,0.2
	c0-0.1,0-0.1,0.1-0.2c0.1,0,0.1-0.1,0.1-0.1C95.3,28.5,95.2,28.6,95.2,28.6z M94,34.1c0-0.1,0-0.1,0.1-0.2C94,33.9,94,34,93.9,34
	c-0.1,0.6-0.2,1.1-0.2,1.8c0.1,0,0.2-0.1,0.2-0.2c0-0.1,0-0.2,0-0.4C93.9,35,93.9,34.7,94,34.1z M102.5,32.5
	C102.5,32.4,102.5,32.4,102.5,32.5c-0.1-0.1-0.1-0.1-0.1-0.1c-0.1,0-0.3-0.1-0.4-0.2l-0.4-0.2c-0.2-0.1-0.4-0.2-0.6-0.4
	c-0.2-0.2-0.4-0.3-0.6-0.4c-0.5-0.3-0.8-0.7-0.9-1.3c-0.1-0.4-0.2-0.7-0.2-0.9c-0.1,0.2-0.2,0.4-0.4,0.7c-0.2,0.3-0.4,0.6-0.5,1
	c-0.3,0.7-0.5,1.3-0.9,1.7c-0.1,0.2-0.3,0.4-0.4,0.8c-0.1,0.4-0.3,0.7-0.4,0.8c0,0,0,0.1,0,0.1c0,0,0,0.1,0,0.1
	c-0.1,0.1-0.1,0.2-0.1,0.4c0,0.2,0,0.3,0,0.4l-0.1,0.3c0,0.1,0,0.2,0,0.3c0,0.1,0.1,0.2,0.1,0.3c0,0.1,0,0.2-0.1,0.3
	c-0.1,0.3-0.1,0.6-0.1,1v0.1c0,0.1,0,0.2-0.1,0.3c0,0.1,0.1,0.2,0.1,0.4c0.1,0.2,0.1,0.4,0.1,0.6C98.5,37.1,100.5,35,102.5,32.5z
	 M108.2,28.6L108.2,28.6h0.1H108.2C108.2,28.6,108.2,28.6,108.2,28.6z M105.2,24.4L105.2,24.4c0.4,0,0.5-0.1,0.5-0.4
	c-0.1,0-0.2,0.1-0.3,0.2S105.3,24.4,105.2,24.4z M107.1,24.2c-0.1,0-0.1,0-0.1-0.1c0-0.1,0-0.1-0.1-0.1c-0.1-0.1-0.1-0.2-0.2-0.2
	c-0.1,0-0.1,0-0.3,0.1l-0.1,0.1c0,0-0.1,0.1-0.1,0h-0.1c-0.2,0-0.3,0.1-0.4,0.3c-0.2,0.4-0.4,0.6-0.7,0.7c-0.1,0-0.1,0-0.1,0.1v0.1
	c0,0.2-0.1,0.4-0.3,0.5c-0.2,0.2-0.4,0.5-0.6,1c0,0.1-0.1,0.2-0.2,0.4c-0.1,0.2-0.1,0.3-0.2,0.5c0,0.1-0.1,0.2-0.2,0.4
	c-0.1,0.2-0.2,0.3-0.2,0.5c0,0.1-0.1,0.3-0.2,0.6c-0.1,0.3-0.2,0.5-0.2,0.6c0,0.1,0,0.3-0.1,0.5c0,0.2-0.1,0.4-0.1,0.6
	c0,0.2,0,0.5,0.1,0.8c0,0,0.1-0.1,0.2-0.1c0.1,0,0.2-0.1,0.2-0.2c0.5-0.7,1-1.5,1.4-2.3c0-0.1,0.2-0.3,0.4-0.7
	c0.4-0.6,0.6-1,0.6-1.2c0.1-0.2,0.2-0.4,0.3-0.6c0.1-0.2,0.2-0.4,0.3-0.6c0.1-0.2,0.2-0.5,0.3-0.8C106.9,24.7,107,24.4,107.1,24.2z
	 M109.4,28.6c0,0-0.1-0.1-0.2-0.1c-0.1,0-0.2-0.1-0.3-0.1c-0.1,0-0.2,0-0.3,0.1c0,0.2-0.2,0.4-0.4,0.6c0,0-0.1,0.1-0.2,0.1
	c-0.1,0-0.2,0.1-0.3,0.1c-0.1,0.1-0.1,0.1-0.1,0.3c0.2,0.1,0.5,0,1-0.3C109,29.1,109.2,28.8,109.4,28.6z M112.9,25.9L112.9,25.9
	c-0.1,0-0.1,0-0.1,0v0L112.9,25.9z M114.4,25.4c0-0.1,0-0.2-0.1-0.2c0,0-0.1,0-0.2,0C114.2,25.4,114.3,25.4,114.4,25.4z"/>
</svg>
